<mxfile host="app.diagrams.net" modified="2023-11-23T19:32:02.515Z" agent="Mozilla/5.0 (Macintosh; Intel Mac OS X 10_15_7) AppleWebKit/537.36 (KHTML, like Gecko) Chrome/119.0.0.0 Safari/537.36" etag="JSDm36ofK5qRmqQPtk0U" version="22.1.3" type="github">
  <diagram name="第 1 页" id="7aQ68HFFc-f0Mft7RM8f">
    <mxGraphModel dx="4643" dy="2704" grid="1" gridSize="10" guides="1" tooltips="1" connect="1" arrows="1" fold="1" page="1" pageScale="1" pageWidth="827" pageHeight="1169" background="none" math="0" shadow="1">
      <root>
        <mxCell id="0" />
        <mxCell id="1" parent="0" />
        <mxCell id="g--a_x8X6rh97y5fOFsP-162" value="" style="rounded=1;whiteSpace=wrap;html=1;fillColor=none;strokeColor=#3333FF;dashed=1;shadow=1;sketch=1;hachureGap=4;jiggle=2;curveFitting=1;fontFamily=Architects Daughter;fontSource=https%3A%2F%2Ffonts.googleapis.com%2Fcss%3Ffamily%3DArchitects%2BDaughter;fontSize=20;movable=1;resizable=1;rotatable=1;deletable=1;editable=1;locked=0;connectable=1;" parent="1" vertex="1">
          <mxGeometry x="-317" y="1020" width="255" height="240" as="geometry" />
        </mxCell>
        <mxCell id="fSu5U68FAcuSb7UhGb1r-19" value="" style="rounded=0;whiteSpace=wrap;html=1;fillColor=none;strokeColor=#007FFF;dashed=1;shadow=1;sketch=1;hachureGap=4;jiggle=2;curveFitting=1;fontFamily=Architects Daughter;fontSource=https%3A%2F%2Ffonts.googleapis.com%2Fcss%3Ffamily%3DArchitects%2BDaughter;fontSize=20;movable=0;resizable=0;rotatable=0;deletable=0;editable=0;locked=1;connectable=0;" vertex="1" parent="1">
          <mxGeometry x="-400" y="300" width="3250" height="3630" as="geometry" />
        </mxCell>
        <mxCell id="g--a_x8X6rh97y5fOFsP-200" value="&amp;nbsp;" style="rounded=1;whiteSpace=wrap;html=1;fillColor=none;strokeColor=#3333FF;dashed=1;shadow=1;sketch=1;hachureGap=4;jiggle=2;curveFitting=1;fontFamily=Architects Daughter;fontSource=https%3A%2F%2Ffonts.googleapis.com%2Fcss%3Ffamily%3DArchitects%2BDaughter;fontSize=20;" parent="1" vertex="1">
          <mxGeometry x="-360" y="2180" width="2830" height="760" as="geometry" />
        </mxCell>
        <mxCell id="g--a_x8X6rh97y5fOFsP-92" value="&amp;nbsp;" style="rounded=0;whiteSpace=wrap;html=1;fillColor=none;strokeColor=#DFFF12;dashed=1;shadow=1;sketch=1;hachureGap=4;jiggle=2;curveFitting=1;fontFamily=Architects Daughter;fontSource=https%3A%2F%2Ffonts.googleapis.com%2Fcss%3Ffamily%3DArchitects%2BDaughter;fontSize=20;" parent="1" vertex="1">
          <mxGeometry x="220" y="770" width="1370" height="1410" as="geometry" />
        </mxCell>
        <mxCell id="nwt9J91pUpCuGWy_Deiw-13" value="" style="rounded=1;whiteSpace=wrap;html=1;fillColor=none;strokeColor=#3333FF;dashed=1;shadow=1;" parent="1" vertex="1">
          <mxGeometry x="1780" y="490" width="390" height="420" as="geometry" />
        </mxCell>
        <mxCell id="nwt9J91pUpCuGWy_Deiw-38" value="" style="rounded=1;whiteSpace=wrap;html=1;fillColor=none;strokeColor=#3333FF;dashed=1;shadow=1;sketch=1;hachureGap=4;jiggle=2;curveFitting=1;fontFamily=Architects Daughter;fontSource=https%3A%2F%2Ffonts.googleapis.com%2Fcss%3Ffamily%3DArchitects%2BDaughter;fontSize=20;movable=0;resizable=0;rotatable=0;deletable=0;editable=0;locked=1;connectable=0;" parent="1" vertex="1">
          <mxGeometry x="15" width="1610" height="280" as="geometry" />
        </mxCell>
        <mxCell id="nwt9J91pUpCuGWy_Deiw-9" style="edgeStyle=orthogonalEdgeStyle;rounded=0;orthogonalLoop=1;jettySize=auto;html=1;exitX=0.5;exitY=1;exitDx=0;exitDy=0;" parent="1" edge="1">
          <mxGeometry relative="1" as="geometry">
            <mxPoint x="220" y="1530" as="sourcePoint" />
            <mxPoint x="220" y="1530" as="targetPoint" />
          </mxGeometry>
        </mxCell>
        <mxCell id="g--a_x8X6rh97y5fOFsP-59" style="edgeStyle=orthogonalEdgeStyle;rounded=0;sketch=1;hachureGap=4;jiggle=2;curveFitting=1;orthogonalLoop=1;jettySize=auto;html=1;fontFamily=Architects Daughter;fontSource=https%3A%2F%2Ffonts.googleapis.com%2Fcss%3Ffamily%3DArchitects%2BDaughter;fontSize=16;" parent="1" source="nwt9J91pUpCuGWy_Deiw-10" target="g--a_x8X6rh97y5fOFsP-56" edge="1">
          <mxGeometry relative="1" as="geometry" />
        </mxCell>
        <mxCell id="g--a_x8X6rh97y5fOFsP-60" style="edgeStyle=orthogonalEdgeStyle;rounded=0;sketch=1;hachureGap=4;jiggle=2;curveFitting=1;orthogonalLoop=1;jettySize=auto;html=1;fontFamily=Architects Daughter;fontSource=https%3A%2F%2Ffonts.googleapis.com%2Fcss%3Ffamily%3DArchitects%2BDaughter;fontSize=16;" parent="1" source="nwt9J91pUpCuGWy_Deiw-10" target="g--a_x8X6rh97y5fOFsP-55" edge="1">
          <mxGeometry relative="1" as="geometry" />
        </mxCell>
        <mxCell id="nwt9J91pUpCuGWy_Deiw-10" value="" style="rounded=1;whiteSpace=wrap;html=1;fillColor=none;strokeColor=#3333FF;dashed=1;shadow=1;movable=1;resizable=1;rotatable=1;deletable=1;editable=1;locked=0;connectable=1;" parent="1" vertex="1">
          <mxGeometry x="240" y="460" width="1340" height="160" as="geometry" />
        </mxCell>
        <mxCell id="nwt9J91pUpCuGWy_Deiw-12" value="" style="rounded=1;whiteSpace=wrap;html=1;fillColor=none;strokeColor=#3333FF;dashed=1;shadow=1;" parent="1" vertex="1">
          <mxGeometry x="-332.5" y="470" width="290" height="1670" as="geometry" />
        </mxCell>
        <mxCell id="g--a_x8X6rh97y5fOFsP-38" style="rounded=0;sketch=1;hachureGap=4;jiggle=2;curveFitting=1;orthogonalLoop=1;jettySize=auto;html=1;exitX=1;exitY=0.5;exitDx=0;exitDy=0;entryX=0;entryY=0.5;entryDx=0;entryDy=0;fontFamily=Architects Daughter;fontSource=https%3A%2F%2Ffonts.googleapis.com%2Fcss%3Ffamily%3DArchitects%2BDaughter;fontSize=16;" parent="1" source="g--a_x8X6rh97y5fOFsP-19" target="g--a_x8X6rh97y5fOFsP-35" edge="1">
          <mxGeometry relative="1" as="geometry" />
        </mxCell>
        <mxCell id="g--a_x8X6rh97y5fOFsP-19" value="" style="group;movable=1;resizable=1;rotatable=1;deletable=1;editable=1;locked=0;connectable=1;" parent="1" vertex="1" connectable="0">
          <mxGeometry x="60" y="50" width="460" height="190" as="geometry" />
        </mxCell>
        <mxCell id="nwt9J91pUpCuGWy_Deiw-2" value="" style="shape=mxgraph.signs.tech.computer;html=1;pointerEvents=1;fillColor=#000000;strokeColor=none;verticalLabelPosition=bottom;verticalAlign=top;align=center;movable=0;resizable=0;rotatable=0;deletable=0;editable=0;locked=1;connectable=0;" parent="g--a_x8X6rh97y5fOFsP-19" vertex="1">
          <mxGeometry x="50" y="10" width="98" height="98" as="geometry" />
        </mxCell>
        <mxCell id="nwt9J91pUpCuGWy_Deiw-3" value="" style="pointerEvents=1;shadow=0;dashed=0;html=1;strokeColor=none;fillColor=#505050;labelPosition=center;verticalLabelPosition=bottom;verticalAlign=top;outlineConnect=0;align=center;shape=mxgraph.office.devices.cell_phone_iphone_standalone;movable=0;resizable=0;rotatable=0;deletable=0;editable=0;locked=1;connectable=0;" parent="g--a_x8X6rh97y5fOFsP-19" vertex="1">
          <mxGeometry x="200" y="10" width="80" height="110" as="geometry" />
        </mxCell>
        <mxCell id="nwt9J91pUpCuGWy_Deiw-4" value="" style="html=1;verticalLabelPosition=bottom;labelBackgroundColor=#ffffff;verticalAlign=top;shadow=0;dashed=0;strokeWidth=1;shape=mxgraph.ios7.misc.ipad13inch;strokeColor=#c0c0c0;movable=0;resizable=0;rotatable=0;deletable=0;editable=0;locked=1;connectable=0;" parent="g--a_x8X6rh97y5fOFsP-19" vertex="1">
          <mxGeometry x="335" y="10" width="90" height="110" as="geometry" />
        </mxCell>
        <mxCell id="nwt9J91pUpCuGWy_Deiw-6" value="" style="rounded=1;whiteSpace=wrap;html=1;fillColor=none;strokeColor=#3333FF;dashed=1;shadow=1;movable=0;resizable=0;rotatable=0;deletable=0;editable=0;locked=1;connectable=0;" parent="g--a_x8X6rh97y5fOFsP-19" vertex="1">
          <mxGeometry width="460" height="190" as="geometry" />
        </mxCell>
        <mxCell id="g--a_x8X6rh97y5fOFsP-13" value="PC" style="text;html=1;strokeColor=none;fillColor=none;align=center;verticalAlign=middle;whiteSpace=wrap;rounded=0;fontSize=20;fontFamily=Architects Daughter;movable=0;resizable=0;rotatable=0;deletable=0;editable=0;locked=1;connectable=0;" parent="g--a_x8X6rh97y5fOFsP-19" vertex="1">
          <mxGeometry x="69" y="150" width="60" height="30" as="geometry" />
        </mxCell>
        <mxCell id="g--a_x8X6rh97y5fOFsP-14" value="PHONE" style="text;html=1;strokeColor=none;fillColor=none;align=center;verticalAlign=middle;whiteSpace=wrap;rounded=0;fontSize=20;fontFamily=Architects Daughter;movable=0;resizable=0;rotatable=0;deletable=0;editable=0;locked=1;connectable=0;" parent="g--a_x8X6rh97y5fOFsP-19" vertex="1">
          <mxGeometry x="210" y="150" width="60" height="30" as="geometry" />
        </mxCell>
        <mxCell id="g--a_x8X6rh97y5fOFsP-15" value="IPAD" style="text;html=1;strokeColor=none;fillColor=none;align=center;verticalAlign=middle;whiteSpace=wrap;rounded=0;fontSize=20;fontFamily=Architects Daughter;movable=0;resizable=0;rotatable=0;deletable=0;editable=0;locked=1;connectable=0;" parent="g--a_x8X6rh97y5fOFsP-19" vertex="1">
          <mxGeometry x="350" y="150" width="60" height="30" as="geometry" />
        </mxCell>
        <mxCell id="g--a_x8X6rh97y5fOFsP-20" value="" style="group;movable=1;resizable=1;rotatable=1;deletable=1;editable=1;locked=0;connectable=1;" parent="1" vertex="1" connectable="0">
          <mxGeometry x="1110" y="60" width="410" height="170" as="geometry" />
        </mxCell>
        <mxCell id="g--a_x8X6rh97y5fOFsP-4" value="" style="sketch=0;html=1;dashed=0;whitespace=wrap;fillColor=#2875E2;strokeColor=#ffffff;points=[[0.005,0.63,0],[0.1,0.2,0],[0.9,0.2,0],[0.5,0,0],[0.995,0.63,0],[0.72,0.99,0],[0.5,1,0],[0.28,0.99,0]];verticalLabelPosition=bottom;align=center;verticalAlign=top;shape=mxgraph.kubernetes.icon;prIcon=k_proxy;hachureGap=4;jiggle=2;curveFitting=1;fontFamily=Architects Daughter;fontSource=https%3A%2F%2Ffonts.googleapis.com%2Fcss%3Ffamily%3DArchitects%2BDaughter;fontSize=20;movable=0;resizable=0;rotatable=0;deletable=0;editable=0;locked=1;connectable=0;" parent="g--a_x8X6rh97y5fOFsP-20" vertex="1">
          <mxGeometry x="240" y="17.5" width="170" height="85" as="geometry" />
        </mxCell>
        <mxCell id="g--a_x8X6rh97y5fOFsP-6" value="" style="sketch=0;html=1;dashed=0;whitespace=wrap;fillColor=#2875E2;strokeColor=#ffffff;points=[[0.005,0.63,0],[0.1,0.2,0],[0.9,0.2,0],[0.5,0,0],[0.995,0.63,0],[0.72,0.99,0],[0.5,1,0],[0.28,0.99,0]];verticalLabelPosition=bottom;align=center;verticalAlign=top;shape=mxgraph.kubernetes.icon;prIcon=k_proxy;hachureGap=4;jiggle=2;curveFitting=1;fontFamily=Architects Daughter;fontSource=https%3A%2F%2Ffonts.googleapis.com%2Fcss%3Ffamily%3DArchitects%2BDaughter;fontSize=20;movable=0;resizable=0;rotatable=0;deletable=0;editable=0;locked=1;connectable=0;" parent="g--a_x8X6rh97y5fOFsP-20" vertex="1">
          <mxGeometry x="120" y="17.5" width="170" height="85" as="geometry" />
        </mxCell>
        <mxCell id="g--a_x8X6rh97y5fOFsP-8" value="NGINX" style="text;html=1;strokeColor=none;fillColor=none;align=center;verticalAlign=middle;whiteSpace=wrap;rounded=0;fontSize=20;fontFamily=Architects Daughter;movable=0;resizable=0;rotatable=0;deletable=0;editable=0;locked=1;connectable=0;" parent="g--a_x8X6rh97y5fOFsP-20" vertex="1">
          <mxGeometry x="295" y="130" width="60" height="30" as="geometry" />
        </mxCell>
        <mxCell id="g--a_x8X6rh97y5fOFsP-9" value="ELB" style="text;html=1;strokeColor=none;fillColor=none;align=center;verticalAlign=middle;whiteSpace=wrap;rounded=0;fontSize=20;fontFamily=Architects Daughter;movable=0;resizable=0;rotatable=0;deletable=0;editable=0;locked=1;connectable=0;" parent="g--a_x8X6rh97y5fOFsP-20" vertex="1">
          <mxGeometry x="175" y="130" width="60" height="30" as="geometry" />
        </mxCell>
        <mxCell id="g--a_x8X6rh97y5fOFsP-12" value="" style="rounded=1;whiteSpace=wrap;html=1;fillColor=none;strokeColor=#3333FF;dashed=1;shadow=1;sketch=1;hachureGap=4;jiggle=2;curveFitting=1;fontFamily=Architects Daughter;fontSource=https%3A%2F%2Ffonts.googleapis.com%2Fcss%3Ffamily%3DArchitects%2BDaughter;fontSize=20;movable=1;resizable=1;rotatable=1;deletable=1;editable=1;locked=0;connectable=1;" parent="g--a_x8X6rh97y5fOFsP-20" vertex="1">
          <mxGeometry width="400" height="170" as="geometry" />
        </mxCell>
        <mxCell id="g--a_x8X6rh97y5fOFsP-36" value="" style="group" parent="g--a_x8X6rh97y5fOFsP-20" vertex="1" connectable="0">
          <mxGeometry y="17.5" width="170" height="142.5" as="geometry" />
        </mxCell>
        <mxCell id="g--a_x8X6rh97y5fOFsP-5" value="" style="sketch=0;html=1;dashed=0;whitespace=wrap;fillColor=#2875E2;strokeColor=#ffffff;points=[[0.005,0.63,0],[0.1,0.2,0],[0.9,0.2,0],[0.5,0,0],[0.995,0.63,0],[0.72,0.99,0],[0.5,1,0],[0.28,0.99,0]];verticalLabelPosition=bottom;align=center;verticalAlign=top;shape=mxgraph.kubernetes.icon;prIcon=k_proxy;hachureGap=4;jiggle=2;curveFitting=1;fontFamily=Architects Daughter;fontSource=https%3A%2F%2Ffonts.googleapis.com%2Fcss%3Ffamily%3DArchitects%2BDaughter;fontSize=20;movable=0;resizable=0;rotatable=0;deletable=0;editable=0;locked=1;connectable=0;" parent="g--a_x8X6rh97y5fOFsP-36" vertex="1">
          <mxGeometry width="170" height="85" as="geometry" />
        </mxCell>
        <mxCell id="g--a_x8X6rh97y5fOFsP-7" value="SLB" style="text;html=1;strokeColor=none;fillColor=none;align=center;verticalAlign=middle;whiteSpace=wrap;rounded=0;fontSize=20;fontFamily=Architects Daughter;movable=0;resizable=0;rotatable=0;deletable=0;editable=0;locked=1;connectable=0;" parent="g--a_x8X6rh97y5fOFsP-36" vertex="1">
          <mxGeometry x="55" y="112.5" width="60" height="30" as="geometry" />
        </mxCell>
        <mxCell id="g--a_x8X6rh97y5fOFsP-37" value="" style="group" parent="1" vertex="1" connectable="0">
          <mxGeometry x="615" y="45" width="415" height="200" as="geometry" />
        </mxCell>
        <mxCell id="g--a_x8X6rh97y5fOFsP-22" value="" style="fillColor=#28A8E0;verticalLabelPosition=bottom;sketch=0;html=1;strokeColor=#ffffff;verticalAlign=top;align=center;points=[[0.145,0.145,0],[0.5,0,0],[0.855,0.145,0],[1,0.5,0],[0.855,0.855,0],[0.5,1,0],[0.145,0.855,0],[0,0.5,0]];pointerEvents=1;shape=mxgraph.cisco_safe.compositeIcon;bgIcon=ellipse;resIcon=mxgraph.cisco_safe.capability.web_application_firewall;hachureGap=4;jiggle=2;curveFitting=1;fontFamily=Architects Daughter;fontSource=https%3A%2F%2Ffonts.googleapis.com%2Fcss%3Ffamily%3DArchitects%2BDaughter;fontSize=20;" parent="g--a_x8X6rh97y5fOFsP-37" vertex="1">
          <mxGeometry x="182.1951219512195" y="54.25" width="70.85365853658537" height="71.5" as="geometry" />
        </mxCell>
        <mxCell id="g--a_x8X6rh97y5fOFsP-25" value="" style="verticalLabelPosition=bottom;sketch=0;html=1;fillColor=#6ABD46;strokeColor=#ffffff;verticalAlign=top;align=center;points=[[0.085,0.085,0],[0.915,0.085,0],[0.915,0.915,0],[0.085,0.915,0],[0.25,0,0],[0.5,0,0],[0.75,0,0],[1,0.25,0],[1,0.5,0],[1,0.75,0],[0.75,1,0],[0.5,1,0],[0.25,1,0],[0,0.75,0],[0,0.5,0],[0,0.25,0]];pointerEvents=1;shape=mxgraph.cisco_safe.compositeIcon;bgIcon=mxgraph.cisco_safe.architecture.generic_appliance;resIcon=mxgraph.cisco_safe.architecture.web_application_firewall;hachureGap=4;jiggle=2;curveFitting=1;fontFamily=Architects Daughter;fontSource=https%3A%2F%2Ffonts.googleapis.com%2Fcss%3Ffamily%3DArchitects%2BDaughter;fontSize=20;" parent="g--a_x8X6rh97y5fOFsP-37" vertex="1">
          <mxGeometry x="30.365853658536587" y="45.5" width="91.09756097560975" height="84.5" as="geometry" />
        </mxCell>
        <mxCell id="g--a_x8X6rh97y5fOFsP-30" value="" style="sketch=0;outlineConnect=0;fontColor=#232F3E;gradientColor=none;fillColor=#232F3D;strokeColor=none;dashed=0;verticalLabelPosition=bottom;verticalAlign=top;align=center;html=1;fontSize=12;fontStyle=0;aspect=fixed;pointerEvents=1;shape=mxgraph.aws4.generic_firewall;hachureGap=4;jiggle=2;curveFitting=1;fontFamily=Architects Daughter;fontSource=https%3A%2F%2Ffonts.googleapis.com%2Fcss%3Ffamily%3DArchitects%2BDaughter;" parent="g--a_x8X6rh97y5fOFsP-37" vertex="1">
          <mxGeometry x="303.6585365853659" y="54" width="89.82" height="76" as="geometry" />
        </mxCell>
        <mxCell id="g--a_x8X6rh97y5fOFsP-31" value="web应用防护" style="text;html=1;strokeColor=none;fillColor=none;align=center;verticalAlign=middle;whiteSpace=wrap;rounded=0;fontSize=20;fontFamily=Architects Daughter;" parent="g--a_x8X6rh97y5fOFsP-37" vertex="1">
          <mxGeometry x="10.121951219512194" y="150" width="131.58536585365854" height="30" as="geometry" />
        </mxCell>
        <mxCell id="g--a_x8X6rh97y5fOFsP-32" value="CDN" style="text;html=1;strokeColor=none;fillColor=none;align=center;verticalAlign=middle;whiteSpace=wrap;rounded=0;fontSize=20;fontFamily=Architects Daughter;" parent="g--a_x8X6rh97y5fOFsP-37" vertex="1">
          <mxGeometry x="192.3170731707317" y="150" width="60.73170731707317" height="30" as="geometry" />
        </mxCell>
        <mxCell id="g--a_x8X6rh97y5fOFsP-33" value="防火墙" style="text;html=1;strokeColor=none;fillColor=none;align=center;verticalAlign=middle;whiteSpace=wrap;rounded=0;fontSize=20;fontFamily=Architects Daughter;" parent="g--a_x8X6rh97y5fOFsP-37" vertex="1">
          <mxGeometry x="301.03695121951216" y="150" width="96.15853658536585" height="30" as="geometry" />
        </mxCell>
        <mxCell id="g--a_x8X6rh97y5fOFsP-39" style="rounded=0;sketch=1;hachureGap=4;jiggle=2;curveFitting=1;orthogonalLoop=1;jettySize=auto;html=1;exitX=1;exitY=0.5;exitDx=0;exitDy=0;fontFamily=Architects Daughter;fontSource=https%3A%2F%2Ffonts.googleapis.com%2Fcss%3Ffamily%3DArchitects%2BDaughter;fontSize=16;" parent="g--a_x8X6rh97y5fOFsP-37" source="g--a_x8X6rh97y5fOFsP-35" edge="1">
          <mxGeometry relative="1" as="geometry">
            <mxPoint x="495" y="101" as="targetPoint" />
          </mxGeometry>
        </mxCell>
        <mxCell id="g--a_x8X6rh97y5fOFsP-35" value="" style="rounded=1;whiteSpace=wrap;html=1;fillColor=none;strokeColor=#3333FF;dashed=1;shadow=1;sketch=1;hachureGap=4;jiggle=2;curveFitting=1;fontFamily=Architects Daughter;fontSource=https%3A%2F%2Ffonts.googleapis.com%2Fcss%3Ffamily%3DArchitects%2BDaughter;fontSize=20;" parent="g--a_x8X6rh97y5fOFsP-37" vertex="1">
          <mxGeometry width="415" height="200" as="geometry" />
        </mxCell>
        <mxCell id="g--a_x8X6rh97y5fOFsP-40" value="gateway-server" style="rounded=1;whiteSpace=wrap;html=1;fillColor=#d5e8d4;strokeColor=#82b366;glass=1;shadow=1;labelBorderColor=none;gradientColor=#97d077;sketch=1;hachureGap=4;jiggle=2;curveFitting=1;fontFamily=Architects Daughter;fontSource=https%3A%2F%2Ffonts.googleapis.com%2Fcss%3Ffamily%3DArchitects%2BDaughter;fontSize=20;movable=1;resizable=1;rotatable=1;deletable=1;editable=1;locked=0;connectable=1;" parent="1" vertex="1">
          <mxGeometry x="1120" y="480" width="370" height="90" as="geometry" />
        </mxCell>
        <mxCell id="g--a_x8X6rh97y5fOFsP-41" value="gateway-server" style="rounded=1;whiteSpace=wrap;html=1;fillColor=#d5e8d4;strokeColor=#82b366;glass=1;shadow=1;labelBorderColor=none;gradientColor=#97d077;sketch=1;hachureGap=4;jiggle=2;curveFitting=1;fontFamily=Architects Daughter;fontSource=https%3A%2F%2Ffonts.googleapis.com%2Fcss%3Ffamily%3DArchitects%2BDaughter;fontSize=20;movable=1;resizable=1;rotatable=1;deletable=1;editable=1;locked=0;connectable=1;" parent="1" vertex="1">
          <mxGeometry x="300" y="480" width="370" height="90" as="geometry" />
        </mxCell>
        <mxCell id="g--a_x8X6rh97y5fOFsP-42" value="gateway-server" style="rounded=1;whiteSpace=wrap;html=1;fillColor=#d5e8d4;strokeColor=#82b366;glass=1;shadow=1;labelBorderColor=none;gradientColor=#97d077;sketch=1;hachureGap=4;jiggle=2;curveFitting=1;fontFamily=Architects Daughter;fontSource=https%3A%2F%2Ffonts.googleapis.com%2Fcss%3Ffamily%3DArchitects%2BDaughter;fontSize=20;movable=1;resizable=1;rotatable=1;deletable=1;editable=1;locked=0;connectable=1;" parent="1" vertex="1">
          <mxGeometry x="710" y="480" width="370" height="90" as="geometry" />
        </mxCell>
        <mxCell id="g--a_x8X6rh97y5fOFsP-43" style="rounded=0;sketch=1;hachureGap=4;jiggle=2;curveFitting=1;orthogonalLoop=1;jettySize=auto;html=1;fontFamily=Architects Daughter;fontSource=https%3A%2F%2Ffonts.googleapis.com%2Fcss%3Ffamily%3DArchitects%2BDaughter;fontSize=16;" parent="1" source="g--a_x8X6rh97y5fOFsP-12" edge="1">
          <mxGeometry relative="1" as="geometry">
            <mxPoint x="1310" y="460" as="targetPoint" />
          </mxGeometry>
        </mxCell>
        <mxCell id="g--a_x8X6rh97y5fOFsP-46" value="" style="image;sketch=0;aspect=fixed;html=1;points=[];align=center;fontSize=12;image=img/lib/mscae/Docker.svg;hachureGap=4;jiggle=2;curveFitting=1;fontFamily=Architects Daughter;fontSource=https%3A%2F%2Ffonts.googleapis.com%2Fcss%3Ffamily%3DArchitects%2BDaughter;movable=0;resizable=0;rotatable=0;deletable=0;editable=0;locked=1;connectable=0;" parent="1" vertex="1">
          <mxGeometry x="1500" y="430" width="109.77" height="90" as="geometry" />
        </mxCell>
        <mxCell id="g--a_x8X6rh97y5fOFsP-47" value="外网" style="text;html=1;strokeColor=none;fillColor=none;align=center;verticalAlign=middle;whiteSpace=wrap;rounded=0;fontSize=20;fontFamily=Architects Daughter;" parent="1" vertex="1">
          <mxGeometry x="1520" y="20" width="60" height="30" as="geometry" />
        </mxCell>
        <mxCell id="g--a_x8X6rh97y5fOFsP-55" value="" style="rounded=1;whiteSpace=wrap;html=1;fillColor=none;strokeColor=#3333FF;dashed=1;shadow=1;sketch=1;hachureGap=4;jiggle=2;curveFitting=1;fontFamily=Architects Daughter;fontSource=https%3A%2F%2Ffonts.googleapis.com%2Fcss%3Ffamily%3DArchitects%2BDaughter;fontSize=20;" parent="1" vertex="1">
          <mxGeometry x="1340" y="770" width="240" height="1340" as="geometry" />
        </mxCell>
        <mxCell id="g--a_x8X6rh97y5fOFsP-56" value="" style="rounded=0;whiteSpace=wrap;html=1;fillColor=none;strokeColor=#3333FF;dashed=1;shadow=1;sketch=1;hachureGap=4;jiggle=2;curveFitting=1;fontFamily=Architects Daughter;fontSource=https%3A%2F%2Ffonts.googleapis.com%2Fcss%3Ffamily%3DArchitects%2BDaughter;fontSize=20;" parent="1" vertex="1">
          <mxGeometry x="240" y="770" width="1060" height="1390" as="geometry" />
        </mxCell>
        <mxCell id="g--a_x8X6rh97y5fOFsP-67" value="sentinel/loadbanlance" style="text;html=1;strokeColor=none;fillColor=none;align=center;verticalAlign=middle;whiteSpace=wrap;rounded=0;fontSize=20;fontFamily=Architects Daughter;" parent="1" vertex="1">
          <mxGeometry x="880" y="640" width="100" height="30" as="geometry" />
        </mxCell>
        <mxCell id="g--a_x8X6rh97y5fOFsP-68" value="认证模块" style="text;html=1;strokeColor=none;fillColor=none;align=center;verticalAlign=middle;whiteSpace=wrap;rounded=0;fontSize=20;fontFamily=Architects Daughter;" parent="1" vertex="1">
          <mxGeometry x="1360" y="800" width="110" height="30" as="geometry" />
        </mxCell>
        <mxCell id="g--a_x8X6rh97y5fOFsP-71" value="" style="image;sketch=0;aspect=fixed;html=1;points=[];align=center;fontSize=12;image=img/lib/mscae/Docker.svg;hachureGap=4;jiggle=2;curveFitting=1;fontFamily=Architects Daughter;fontSource=https%3A%2F%2Ffonts.googleapis.com%2Fcss%3Ffamily%3DArchitects%2BDaughter;" parent="1" vertex="1">
          <mxGeometry x="1505.49" y="749" width="98.78" height="81" as="geometry" />
        </mxCell>
        <mxCell id="g--a_x8X6rh97y5fOFsP-72" value="" style="image;sketch=0;aspect=fixed;html=1;points=[];align=center;fontSize=12;image=img/lib/mscae/Docker.svg;hachureGap=4;jiggle=2;curveFitting=1;fontFamily=Architects Daughter;fontSource=https%3A%2F%2Ffonts.googleapis.com%2Fcss%3Ffamily%3DArchitects%2BDaughter;" parent="1" vertex="1">
          <mxGeometry x="2080" y="470" width="110.98" height="91" as="geometry" />
        </mxCell>
        <mxCell id="g--a_x8X6rh97y5fOFsP-73" value="" style="image;sketch=0;aspect=fixed;html=1;points=[];align=center;fontSize=12;image=img/lib/mscae/Docker.svg;hachureGap=4;jiggle=2;curveFitting=1;fontFamily=Architects Daughter;fontSource=https%3A%2F%2Ffonts.googleapis.com%2Fcss%3Ffamily%3DArchitects%2BDaughter;" parent="1" vertex="1">
          <mxGeometry x="1201.22" y="774.5" width="98.78" height="81" as="geometry" />
        </mxCell>
        <mxCell id="g--a_x8X6rh97y5fOFsP-75" value="" style="group;sketch=1;hachureGap=4;jiggle=2;curveFitting=1;fontFamily=Architects Daughter;fontSource=https%3A%2F%2Ffonts.googleapis.com%2Fcss%3Ffamily%3DArchitects%2BDaughter;fontSize=20;" parent="1" vertex="1" connectable="0">
          <mxGeometry x="1805" y="597" width="340" height="226" as="geometry" />
        </mxCell>
        <mxCell id="g--a_x8X6rh97y5fOFsP-76" value="nacos" style="rounded=1;whiteSpace=wrap;html=1;fillColor=#b1ddf0;strokeColor=#10739e;glass=1;shadow=1;labelBorderColor=none;sketch=1;hachureGap=4;jiggle=2;curveFitting=1;fontFamily=Architects Daughter;fontSource=https%3A%2F%2Ffonts.googleapis.com%2Fcss%3Ffamily%3DArchitects%2BDaughter;fontSize=20;" parent="g--a_x8X6rh97y5fOFsP-75" vertex="1">
          <mxGeometry x="110" y="36" width="120" height="50" as="geometry" />
        </mxCell>
        <mxCell id="g--a_x8X6rh97y5fOFsP-77" style="rounded=0;orthogonalLoop=1;jettySize=auto;html=1;exitX=0.75;exitY=0;exitDx=0;exitDy=0;entryX=1;entryY=0.5;entryDx=0;entryDy=0;sketch=1;hachureGap=4;jiggle=2;curveFitting=1;fontFamily=Architects Daughter;fontSource=https%3A%2F%2Ffonts.googleapis.com%2Fcss%3Ffamily%3DArchitects%2BDaughter;fontSize=16;" parent="g--a_x8X6rh97y5fOFsP-75" source="g--a_x8X6rh97y5fOFsP-78" target="g--a_x8X6rh97y5fOFsP-76" edge="1">
          <mxGeometry relative="1" as="geometry" />
        </mxCell>
        <mxCell id="g--a_x8X6rh97y5fOFsP-78" value="nacos" style="rounded=1;whiteSpace=wrap;html=1;fillColor=#b1ddf0;strokeColor=#10739e;glass=1;shadow=1;labelBorderColor=none;sketch=1;hachureGap=4;jiggle=2;curveFitting=1;fontFamily=Architects Daughter;fontSource=https%3A%2F%2Ffonts.googleapis.com%2Fcss%3Ffamily%3DArchitects%2BDaughter;fontSize=20;" parent="g--a_x8X6rh97y5fOFsP-75" vertex="1">
          <mxGeometry x="200" y="126" width="120" height="50" as="geometry" />
        </mxCell>
        <mxCell id="g--a_x8X6rh97y5fOFsP-79" style="rounded=0;orthogonalLoop=1;jettySize=auto;html=1;exitX=1;exitY=1;exitDx=0;exitDy=0;entryX=0.567;entryY=-0.01;entryDx=0;entryDy=0;entryPerimeter=0;sketch=1;hachureGap=4;jiggle=2;curveFitting=1;fontFamily=Architects Daughter;fontSource=https%3A%2F%2Ffonts.googleapis.com%2Fcss%3Ffamily%3DArchitects%2BDaughter;fontSize=16;" parent="g--a_x8X6rh97y5fOFsP-75" source="g--a_x8X6rh97y5fOFsP-76" target="g--a_x8X6rh97y5fOFsP-78" edge="1">
          <mxGeometry relative="1" as="geometry" />
        </mxCell>
        <mxCell id="g--a_x8X6rh97y5fOFsP-80" style="edgeStyle=orthogonalEdgeStyle;rounded=0;orthogonalLoop=1;jettySize=auto;html=1;exitX=1;exitY=0.5;exitDx=0;exitDy=0;entryX=0;entryY=0.5;entryDx=0;entryDy=0;sketch=1;hachureGap=4;jiggle=2;curveFitting=1;fontFamily=Architects Daughter;fontSource=https%3A%2F%2Ffonts.googleapis.com%2Fcss%3Ffamily%3DArchitects%2BDaughter;fontSize=16;" parent="g--a_x8X6rh97y5fOFsP-75" source="g--a_x8X6rh97y5fOFsP-82" target="g--a_x8X6rh97y5fOFsP-78" edge="1">
          <mxGeometry relative="1" as="geometry" />
        </mxCell>
        <mxCell id="g--a_x8X6rh97y5fOFsP-81" style="rounded=0;orthogonalLoop=1;jettySize=auto;html=1;exitX=0.25;exitY=0;exitDx=0;exitDy=0;entryX=0;entryY=0.5;entryDx=0;entryDy=0;sketch=1;hachureGap=4;jiggle=2;curveFitting=1;fontFamily=Architects Daughter;fontSource=https%3A%2F%2Ffonts.googleapis.com%2Fcss%3Ffamily%3DArchitects%2BDaughter;fontSize=16;" parent="g--a_x8X6rh97y5fOFsP-75" source="g--a_x8X6rh97y5fOFsP-82" target="g--a_x8X6rh97y5fOFsP-76" edge="1">
          <mxGeometry relative="1" as="geometry" />
        </mxCell>
        <mxCell id="g--a_x8X6rh97y5fOFsP-82" value="nacos" style="rounded=1;whiteSpace=wrap;html=1;fillColor=#b1ddf0;strokeColor=#10739e;glass=1;shadow=1;labelBorderColor=none;sketch=1;hachureGap=4;jiggle=2;curveFitting=1;fontFamily=Architects Daughter;fontSource=https%3A%2F%2Ffonts.googleapis.com%2Fcss%3Ffamily%3DArchitects%2BDaughter;fontSize=20;" parent="g--a_x8X6rh97y5fOFsP-75" vertex="1">
          <mxGeometry x="17" y="126" width="120" height="50" as="geometry" />
        </mxCell>
        <mxCell id="g--a_x8X6rh97y5fOFsP-83" style="rounded=0;orthogonalLoop=1;jettySize=auto;html=1;exitX=0;exitY=1;exitDx=0;exitDy=0;entryX=0.442;entryY=0.03;entryDx=0;entryDy=0;entryPerimeter=0;sketch=1;hachureGap=4;jiggle=2;curveFitting=1;fontFamily=Architects Daughter;fontSource=https%3A%2F%2Ffonts.googleapis.com%2Fcss%3Ffamily%3DArchitects%2BDaughter;fontSize=16;" parent="g--a_x8X6rh97y5fOFsP-75" source="g--a_x8X6rh97y5fOFsP-76" target="g--a_x8X6rh97y5fOFsP-82" edge="1">
          <mxGeometry relative="1" as="geometry">
            <mxPoint x="70" y="116" as="targetPoint" />
            <Array as="points">
              <mxPoint x="90" y="106" />
            </Array>
          </mxGeometry>
        </mxCell>
        <mxCell id="g--a_x8X6rh97y5fOFsP-84" style="edgeStyle=orthogonalEdgeStyle;rounded=0;orthogonalLoop=1;jettySize=auto;html=1;exitX=0;exitY=0.75;exitDx=0;exitDy=0;entryX=1;entryY=0.75;entryDx=0;entryDy=0;sketch=1;hachureGap=4;jiggle=2;curveFitting=1;fontFamily=Architects Daughter;fontSource=https%3A%2F%2Ffonts.googleapis.com%2Fcss%3Ffamily%3DArchitects%2BDaughter;fontSize=16;" parent="g--a_x8X6rh97y5fOFsP-75" source="g--a_x8X6rh97y5fOFsP-78" target="g--a_x8X6rh97y5fOFsP-82" edge="1">
          <mxGeometry relative="1" as="geometry" />
        </mxCell>
        <mxCell id="g--a_x8X6rh97y5fOFsP-85" value="register" style="text;html=1;strokeColor=none;fillColor=none;align=center;verticalAlign=middle;whiteSpace=wrap;rounded=0;fontSize=20;fontFamily=Architects Daughter;" parent="g--a_x8X6rh97y5fOFsP-75" vertex="1">
          <mxGeometry x="17" y="80" width="60" height="30" as="geometry" />
        </mxCell>
        <mxCell id="g--a_x8X6rh97y5fOFsP-86" value="register" style="text;html=1;strokeColor=none;fillColor=none;align=center;verticalAlign=middle;whiteSpace=wrap;rounded=0;fontSize=20;fontFamily=Architects Daughter;" parent="g--a_x8X6rh97y5fOFsP-75" vertex="1">
          <mxGeometry x="140" y="120" width="60" height="30" as="geometry" />
        </mxCell>
        <mxCell id="g--a_x8X6rh97y5fOFsP-87" value="register" style="text;html=1;strokeColor=none;fillColor=none;align=center;verticalAlign=middle;whiteSpace=wrap;rounded=0;fontSize=20;fontFamily=Architects Daughter;" parent="g--a_x8X6rh97y5fOFsP-75" vertex="1">
          <mxGeometry x="140" y="162" width="60" height="30" as="geometry" />
        </mxCell>
        <mxCell id="g--a_x8X6rh97y5fOFsP-88" value="register" style="text;html=1;strokeColor=none;fillColor=none;align=center;verticalAlign=middle;whiteSpace=wrap;rounded=0;fontSize=20;fontFamily=Architects Daughter;" parent="g--a_x8X6rh97y5fOFsP-75" vertex="1">
          <mxGeometry x="270" y="70" width="60" height="30" as="geometry" />
        </mxCell>
        <mxCell id="g--a_x8X6rh97y5fOFsP-89" value="register" style="text;html=1;strokeColor=none;fillColor=none;align=center;verticalAlign=middle;whiteSpace=wrap;rounded=0;fontSize=20;fontFamily=Architects Daughter;" parent="g--a_x8X6rh97y5fOFsP-75" vertex="1">
          <mxGeometry x="77" y="96" width="60" height="30" as="geometry" />
        </mxCell>
        <mxCell id="g--a_x8X6rh97y5fOFsP-90" value="register" style="text;html=1;strokeColor=none;fillColor=none;align=center;verticalAlign=middle;whiteSpace=wrap;rounded=0;fontSize=20;fontFamily=Architects Daughter;" parent="g--a_x8X6rh97y5fOFsP-75" vertex="1">
          <mxGeometry x="200" y="90" width="60" height="30" as="geometry" />
        </mxCell>
        <mxCell id="g--a_x8X6rh97y5fOFsP-91" value="" style="rounded=1;whiteSpace=wrap;html=1;fillColor=none;strokeColor=#3333FF;dashed=1;shadow=1;sketch=1;hachureGap=4;jiggle=2;curveFitting=1;fontFamily=Architects Daughter;fontSource=https%3A%2F%2Ffonts.googleapis.com%2Fcss%3Ffamily%3DArchitects%2BDaughter;fontSize=20;" parent="g--a_x8X6rh97y5fOFsP-75" vertex="1">
          <mxGeometry width="340" height="226" as="geometry" />
        </mxCell>
        <mxCell id="g--a_x8X6rh97y5fOFsP-93" value="" style="shape=flexArrow;endArrow=classic;startArrow=classic;html=1;rounded=0;sketch=1;hachureGap=4;jiggle=2;curveFitting=1;fontFamily=Architects Daughter;fontSource=https%3A%2F%2Ffonts.googleapis.com%2Fcss%3Ffamily%3DArchitects%2BDaughter;fontSize=16;entryX=-0.003;entryY=0.164;entryDx=0;entryDy=0;entryPerimeter=0;" parent="1" target="nwt9J91pUpCuGWy_Deiw-13" edge="1">
          <mxGeometry width="100" height="100" relative="1" as="geometry">
            <mxPoint x="1580" y="560" as="sourcePoint" />
            <mxPoint x="1680" y="460" as="targetPoint" />
          </mxGeometry>
        </mxCell>
        <mxCell id="g--a_x8X6rh97y5fOFsP-94" value="auth-server" style="rounded=1;whiteSpace=wrap;html=1;fillColor=#d5e8d4;strokeColor=#82b366;glass=1;shadow=1;labelBorderColor=none;gradientColor=#97d077;sketch=1;hachureGap=4;jiggle=2;curveFitting=1;fontFamily=Architects Daughter;fontSource=https%3A%2F%2Ffonts.googleapis.com%2Fcss%3Ffamily%3DArchitects%2BDaughter;fontSize=20;" parent="1" vertex="1">
          <mxGeometry x="1360" y="890" width="200" height="70" as="geometry" />
        </mxCell>
        <mxCell id="g--a_x8X6rh97y5fOFsP-95" value="auth-server" style="rounded=1;whiteSpace=wrap;html=1;fillColor=#d5e8d4;strokeColor=#82b366;glass=1;shadow=1;labelBorderColor=none;gradientColor=#97d077;sketch=1;hachureGap=4;jiggle=2;curveFitting=1;fontFamily=Architects Daughter;fontSource=https%3A%2F%2Ffonts.googleapis.com%2Fcss%3Ffamily%3DArchitects%2BDaughter;fontSize=20;" parent="1" vertex="1">
          <mxGeometry x="1360" y="1610" width="200" height="70" as="geometry" />
        </mxCell>
        <mxCell id="g--a_x8X6rh97y5fOFsP-96" value="auth-server" style="rounded=1;whiteSpace=wrap;html=1;fillColor=#d5e8d4;strokeColor=#82b366;glass=1;shadow=1;labelBorderColor=none;gradientColor=#97d077;sketch=1;hachureGap=4;jiggle=2;curveFitting=1;fontFamily=Architects Daughter;fontSource=https%3A%2F%2Ffonts.googleapis.com%2Fcss%3Ffamily%3DArchitects%2BDaughter;fontSize=20;" parent="1" vertex="1">
          <mxGeometry x="1360" y="1340" width="200" height="70" as="geometry" />
        </mxCell>
        <mxCell id="g--a_x8X6rh97y5fOFsP-98" value="auth-server" style="rounded=1;whiteSpace=wrap;html=1;fillColor=#d5e8d4;strokeColor=#82b366;glass=1;shadow=1;labelBorderColor=none;gradientColor=#97d077;sketch=1;hachureGap=4;jiggle=2;curveFitting=1;fontFamily=Architects Daughter;fontSource=https%3A%2F%2Ffonts.googleapis.com%2Fcss%3Ffamily%3DArchitects%2BDaughter;fontSize=20;" parent="1" vertex="1">
          <mxGeometry x="1360" y="1099" width="200" height="70" as="geometry" />
        </mxCell>
        <mxCell id="g--a_x8X6rh97y5fOFsP-102" value="" style="shape=flexArrow;endArrow=classic;startArrow=classic;html=1;rounded=0;sketch=1;hachureGap=4;jiggle=2;curveFitting=1;fontFamily=Architects Daughter;fontSource=https%3A%2F%2Ffonts.googleapis.com%2Fcss%3Ffamily%3DArchitects%2BDaughter;fontSize=16;entryX=-0.003;entryY=0.164;entryDx=0;entryDy=0;entryPerimeter=0;" parent="1" edge="1">
          <mxGeometry width="100" height="100" relative="1" as="geometry">
            <mxPoint x="1581" y="851" as="sourcePoint" />
            <mxPoint x="1780" y="850" as="targetPoint" />
          </mxGeometry>
        </mxCell>
        <mxCell id="g--a_x8X6rh97y5fOFsP-103" value="" style="rounded=1;whiteSpace=wrap;html=1;fillColor=none;strokeColor=#3333FF;dashed=1;shadow=1;" parent="1" vertex="1">
          <mxGeometry x="1790" y="970" width="680" height="400" as="geometry" />
        </mxCell>
        <mxCell id="g--a_x8X6rh97y5fOFsP-104" value="" style="shape=flexArrow;endArrow=classic;startArrow=classic;html=1;rounded=0;sketch=1;hachureGap=4;jiggle=2;curveFitting=1;fontFamily=Architects Daughter;fontSource=https%3A%2F%2Ffonts.googleapis.com%2Fcss%3Ffamily%3DArchitects%2BDaughter;fontSize=16;entryX=-0.003;entryY=0.164;entryDx=0;entryDy=0;entryPerimeter=0;" parent="1" edge="1">
          <mxGeometry width="100" height="100" relative="1" as="geometry">
            <mxPoint x="1591" y="1091" as="sourcePoint" />
            <mxPoint x="1790" y="1090" as="targetPoint" />
          </mxGeometry>
        </mxCell>
        <mxCell id="g--a_x8X6rh97y5fOFsP-105" value="" style="shape=flexArrow;endArrow=classic;startArrow=classic;html=1;rounded=0;sketch=1;hachureGap=4;jiggle=2;curveFitting=1;fontFamily=Architects Daughter;fontSource=https%3A%2F%2Ffonts.googleapis.com%2Fcss%3Ffamily%3DArchitects%2BDaughter;fontSize=16;entryX=-0.003;entryY=0.164;entryDx=0;entryDy=0;entryPerimeter=0;" parent="1" edge="1">
          <mxGeometry width="100" height="100" relative="1" as="geometry">
            <mxPoint x="1590" y="1251" as="sourcePoint" />
            <mxPoint x="1789" y="1250" as="targetPoint" />
          </mxGeometry>
        </mxCell>
        <mxCell id="g--a_x8X6rh97y5fOFsP-106" value="日志采集" style="text;html=1;strokeColor=none;fillColor=none;align=center;verticalAlign=middle;whiteSpace=wrap;rounded=0;fontSize=20;fontFamily=Architects Daughter;" parent="1" vertex="1">
          <mxGeometry x="1640" y="1040" width="106" height="30" as="geometry" />
        </mxCell>
        <mxCell id="g--a_x8X6rh97y5fOFsP-107" value="日志传输" style="text;html=1;strokeColor=none;fillColor=none;align=center;verticalAlign=middle;whiteSpace=wrap;rounded=0;fontSize=20;fontFamily=Architects Daughter;" parent="1" vertex="1">
          <mxGeometry x="1629" y="1210" width="117" height="30" as="geometry" />
        </mxCell>
        <mxCell id="g--a_x8X6rh97y5fOFsP-111" value="filebeat" style="text;html=1;strokeColor=none;fillColor=none;align=center;verticalAlign=middle;whiteSpace=wrap;rounded=0;fontSize=20;fontFamily=Architects Daughter;" parent="1" vertex="1">
          <mxGeometry x="1663" y="1110" width="60" height="30" as="geometry" />
        </mxCell>
        <mxCell id="g--a_x8X6rh97y5fOFsP-112" value="kafka" style="text;html=1;strokeColor=none;fillColor=none;align=center;verticalAlign=middle;whiteSpace=wrap;rounded=0;fontSize=20;fontFamily=Architects Daughter;" parent="1" vertex="1">
          <mxGeometry x="1663" y="1280" width="60" height="30" as="geometry" />
        </mxCell>
        <mxCell id="g--a_x8X6rh97y5fOFsP-113" value="统一日志系统" style="text;html=1;strokeColor=none;fillColor=none;align=center;verticalAlign=middle;whiteSpace=wrap;rounded=0;fontSize=20;fontFamily=Architects Daughter;" parent="1" vertex="1">
          <mxGeometry x="1805" y="1010" width="180" height="30" as="geometry" />
        </mxCell>
        <mxCell id="g--a_x8X6rh97y5fOFsP-115" value="" style="image;html=1;image=img/lib/atlassian/Atlassian_Logo.svg;sketch=1;hachureGap=4;jiggle=2;curveFitting=1;fontFamily=Architects Daughter;fontSource=https%3A%2F%2Ffonts.googleapis.com%2Fcss%3Ffamily%3DArchitects%2BDaughter;fontSize=20;" parent="1" vertex="1">
          <mxGeometry x="1870" y="1115" width="100" height="110" as="geometry" />
        </mxCell>
        <mxCell id="g--a_x8X6rh97y5fOFsP-116" value="Amazon Elasticsearch Service" style="sketch=0;outlineConnect=0;fontColor=#232F3E;gradientColor=none;strokeColor=#ffffff;fillColor=#232F3E;dashed=0;verticalLabelPosition=middle;verticalAlign=bottom;align=center;html=1;whiteSpace=wrap;fontSize=10;fontStyle=1;spacing=3;shape=mxgraph.aws4.productIcon;prIcon=mxgraph.aws4.elasticsearch_service;hachureGap=4;jiggle=2;curveFitting=1;fontFamily=Architects Daughter;fontSource=https%3A%2F%2Ffonts.googleapis.com%2Fcss%3Ffamily%3DArchitects%2BDaughter;" parent="1" vertex="1">
          <mxGeometry x="2055" y="1115" width="115" height="105" as="geometry" />
        </mxCell>
        <mxCell id="g--a_x8X6rh97y5fOFsP-117" value="" style="image;html=1;image=img/lib/atlassian/Bitbucket_Logo.svg;sketch=1;hachureGap=4;jiggle=2;curveFitting=1;fontFamily=Architects Daughter;fontSource=https%3A%2F%2Ffonts.googleapis.com%2Fcss%3Ffamily%3DArchitects%2BDaughter;fontSize=20;" parent="1" vertex="1">
          <mxGeometry x="2240" y="1120" width="125" height="110" as="geometry" />
        </mxCell>
        <mxCell id="g--a_x8X6rh97y5fOFsP-118" value="Logstash" style="text;html=1;strokeColor=none;fillColor=none;align=center;verticalAlign=middle;whiteSpace=wrap;rounded=0;fontSize=20;fontFamily=Architects Daughter;" parent="1" vertex="1">
          <mxGeometry x="1890" y="1275" width="60" height="30" as="geometry" />
        </mxCell>
        <mxCell id="g--a_x8X6rh97y5fOFsP-120" value="Elasticsearch" style="text;html=1;strokeColor=none;fillColor=none;align=center;verticalAlign=middle;whiteSpace=wrap;rounded=0;fontSize=20;fontFamily=Architects Daughter;" parent="1" vertex="1">
          <mxGeometry x="2090" y="1275" width="60" height="30" as="geometry" />
        </mxCell>
        <mxCell id="g--a_x8X6rh97y5fOFsP-121" value="kibana" style="text;html=1;strokeColor=none;fillColor=none;align=center;verticalAlign=middle;whiteSpace=wrap;rounded=0;fontSize=20;fontFamily=Architects Daughter;" parent="1" vertex="1">
          <mxGeometry x="2270" y="1275" width="60" height="30" as="geometry" />
        </mxCell>
        <mxCell id="g--a_x8X6rh97y5fOFsP-122" value="" style="rounded=1;whiteSpace=wrap;html=1;fillColor=none;strokeColor=#3333FF;dashed=1;shadow=1;sketch=1;hachureGap=4;jiggle=2;curveFitting=1;fontFamily=Architects Daughter;fontSource=https%3A%2F%2Ffonts.googleapis.com%2Fcss%3Ffamily%3DArchitects%2BDaughter;fontSize=20;" parent="1" vertex="1">
          <mxGeometry x="1792" y="1410" width="688" height="720" as="geometry" />
        </mxCell>
        <mxCell id="g--a_x8X6rh97y5fOFsP-123" value="" style="image;sketch=0;aspect=fixed;html=1;points=[];align=center;fontSize=12;image=img/lib/mscae/Docker.svg;hachureGap=4;jiggle=2;curveFitting=1;fontFamily=Architects Daughter;fontSource=https%3A%2F%2Ffonts.googleapis.com%2Fcss%3Ffamily%3DArchitects%2BDaughter;" parent="1" vertex="1">
          <mxGeometry x="2380" y="960" width="120" height="98.4" as="geometry" />
        </mxCell>
        <mxCell id="g--a_x8X6rh97y5fOFsP-125" value="" style="group" parent="1" vertex="1" connectable="0">
          <mxGeometry x="2440" y="320" width="315.3699999999999" height="320" as="geometry" />
        </mxCell>
        <mxCell id="nwt9J91pUpCuGWy_Deiw-16" value="" style="rounded=1;whiteSpace=wrap;html=1;fillColor=none;strokeColor=#100AC7;dashed=1;shadow=1;fontColor=#000000;movable=1;resizable=1;rotatable=1;deletable=1;editable=1;locked=0;connectable=1;" parent="g--a_x8X6rh97y5fOFsP-125" vertex="1">
          <mxGeometry y="10" width="280" height="310" as="geometry" />
        </mxCell>
        <mxCell id="g--a_x8X6rh97y5fOFsP-49" value="前端界面" style="text;html=1;strokeColor=none;fillColor=none;align=center;verticalAlign=middle;whiteSpace=wrap;rounded=0;fontSize=20;fontFamily=Architects Daughter;movable=1;resizable=1;rotatable=1;deletable=1;editable=1;locked=0;connectable=1;" parent="g--a_x8X6rh97y5fOFsP-125" vertex="1">
          <mxGeometry x="30" y="40" width="110" height="30" as="geometry" />
        </mxCell>
        <mxCell id="g--a_x8X6rh97y5fOFsP-50" value="前端" style="rounded=0;whiteSpace=wrap;html=1;sketch=1;hachureGap=4;jiggle=2;curveFitting=1;fontFamily=Architects Daughter;fontSource=https%3A%2F%2Ffonts.googleapis.com%2Fcss%3Ffamily%3DArchitects%2BDaughter;fontSize=20;fillColor=#b1ddf0;strokeColor=#10739e;gradientColor=#FFFFFF;movable=1;resizable=1;rotatable=1;deletable=1;editable=1;locked=0;connectable=1;" parent="g--a_x8X6rh97y5fOFsP-125" vertex="1">
          <mxGeometry x="20" y="90" width="240" height="50" as="geometry" />
        </mxCell>
        <mxCell id="g--a_x8X6rh97y5fOFsP-51" value="前端" style="rounded=0;whiteSpace=wrap;html=1;sketch=1;hachureGap=4;jiggle=2;curveFitting=1;fontFamily=Architects Daughter;fontSource=https%3A%2F%2Ffonts.googleapis.com%2Fcss%3Ffamily%3DArchitects%2BDaughter;fontSize=20;fillColor=#b1ddf0;strokeColor=#10739e;gradientColor=#FFFFFF;movable=1;resizable=1;rotatable=1;deletable=1;editable=1;locked=0;connectable=1;" parent="g--a_x8X6rh97y5fOFsP-125" vertex="1">
          <mxGeometry x="20" y="230" width="240" height="40" as="geometry" />
        </mxCell>
        <mxCell id="g--a_x8X6rh97y5fOFsP-52" value="前端" style="rounded=0;whiteSpace=wrap;html=1;sketch=1;hachureGap=4;jiggle=2;curveFitting=1;fontFamily=Architects Daughter;fontSource=https%3A%2F%2Ffonts.googleapis.com%2Fcss%3Ffamily%3DArchitects%2BDaughter;fontSize=20;fillColor=#b1ddf0;strokeColor=#10739e;gradientColor=#FFFFFF;movable=1;resizable=1;rotatable=1;deletable=1;editable=1;locked=0;connectable=1;" parent="g--a_x8X6rh97y5fOFsP-125" vertex="1">
          <mxGeometry x="20" y="160" width="240" height="50" as="geometry" />
        </mxCell>
        <mxCell id="g--a_x8X6rh97y5fOFsP-53" value="" style="image;sketch=0;aspect=fixed;html=1;points=[];align=center;fontSize=12;image=img/lib/mscae/Docker.svg;hachureGap=4;jiggle=2;curveFitting=1;fontFamily=Architects Daughter;fontSource=https%3A%2F%2Ffonts.googleapis.com%2Fcss%3Ffamily%3DArchitects%2BDaughter;movable=1;resizable=1;rotatable=1;deletable=1;editable=1;locked=0;connectable=1;" parent="g--a_x8X6rh97y5fOFsP-125" vertex="1">
          <mxGeometry x="230" width="85.37" height="70" as="geometry" />
        </mxCell>
        <mxCell id="g--a_x8X6rh97y5fOFsP-126" style="edgeStyle=orthogonalEdgeStyle;rounded=0;sketch=1;hachureGap=4;jiggle=2;curveFitting=1;orthogonalLoop=1;jettySize=auto;html=1;exitX=0.5;exitY=1;exitDx=0;exitDy=0;entryX=0;entryY=0.25;entryDx=0;entryDy=0;fontFamily=Architects Daughter;fontSource=https%3A%2F%2Ffonts.googleapis.com%2Fcss%3Ffamily%3DArchitects%2BDaughter;fontSize=16;" parent="1" source="g--a_x8X6rh97y5fOFsP-12" target="nwt9J91pUpCuGWy_Deiw-16" edge="1">
          <mxGeometry relative="1" as="geometry" />
        </mxCell>
        <mxCell id="g--a_x8X6rh97y5fOFsP-127" value="" style="shape=flexArrow;endArrow=classic;startArrow=classic;html=1;rounded=0;sketch=1;hachureGap=4;jiggle=2;curveFitting=1;fontFamily=Architects Daughter;fontSource=https%3A%2F%2Ffonts.googleapis.com%2Fcss%3Ffamily%3DArchitects%2BDaughter;fontSize=16;entryX=-0.003;entryY=0.164;entryDx=0;entryDy=0;entryPerimeter=0;" parent="1" edge="1">
          <mxGeometry width="100" height="100" relative="1" as="geometry">
            <mxPoint x="1588" y="1571" as="sourcePoint" />
            <mxPoint x="1787" y="1570" as="targetPoint" />
          </mxGeometry>
        </mxCell>
        <mxCell id="g--a_x8X6rh97y5fOFsP-128" value="埋点" style="text;html=1;strokeColor=none;fillColor=none;align=center;verticalAlign=middle;whiteSpace=wrap;rounded=0;fontSize=20;fontFamily=Architects Daughter;" parent="1" vertex="1">
          <mxGeometry x="1657.5" y="1510" width="60" height="30" as="geometry" />
        </mxCell>
        <mxCell id="g--a_x8X6rh97y5fOFsP-129" value="大数据平台系统" style="text;html=1;strokeColor=none;fillColor=none;align=center;verticalAlign=middle;whiteSpace=wrap;rounded=0;fontSize=20;fontFamily=Architects Daughter;" parent="1" vertex="1">
          <mxGeometry x="1805" y="1450" width="180" height="30" as="geometry" />
        </mxCell>
        <mxCell id="g--a_x8X6rh97y5fOFsP-130" value="暂未开发,后续补充" style="rounded=0;whiteSpace=wrap;html=1;sketch=1;hachureGap=4;jiggle=2;curveFitting=1;fontFamily=Architects Daughter;fontSource=https%3A%2F%2Ffonts.googleapis.com%2Fcss%3Ffamily%3DArchitects%2BDaughter;fontSize=20;" parent="1" vertex="1">
          <mxGeometry x="1932.5" y="1720" width="375" height="110" as="geometry" />
        </mxCell>
        <mxCell id="g--a_x8X6rh97y5fOFsP-133" value="服务治理" style="text;html=1;strokeColor=none;fillColor=none;align=center;verticalAlign=middle;whiteSpace=wrap;rounded=0;fontSize=20;fontFamily=Architects Daughter;" parent="1" vertex="1">
          <mxGeometry x="1640" y="510" width="90" height="30" as="geometry" />
        </mxCell>
        <mxCell id="g--a_x8X6rh97y5fOFsP-134" value="服务治理" style="text;html=1;strokeColor=none;fillColor=none;align=center;verticalAlign=middle;whiteSpace=wrap;rounded=0;fontSize=20;fontFamily=Architects Daughter;" parent="1" vertex="1">
          <mxGeometry x="1633" y="800" width="90" height="30" as="geometry" />
        </mxCell>
        <mxCell id="g--a_x8X6rh97y5fOFsP-140" value="运维监控" style="text;html=1;strokeColor=none;fillColor=none;align=center;verticalAlign=middle;whiteSpace=wrap;rounded=0;fontSize=20;fontFamily=Architects Daughter;" parent="1" vertex="1">
          <mxGeometry x="-340" y="490" width="190" height="30" as="geometry" />
        </mxCell>
        <mxCell id="g--a_x8X6rh97y5fOFsP-143" value="" style="rounded=1;whiteSpace=wrap;html=1;fillColor=none;strokeColor=#3333FF;dashed=1;shadow=1;sketch=1;hachureGap=4;jiggle=2;curveFitting=1;fontFamily=Architects Daughter;fontSource=https%3A%2F%2Ffonts.googleapis.com%2Fcss%3Ffamily%3DArchitects%2BDaughter;fontSize=20;" parent="1" vertex="1">
          <mxGeometry x="-315" y="561" width="255" height="183" as="geometry" />
        </mxCell>
        <mxCell id="g--a_x8X6rh97y5fOFsP-146" value="" style="sketch=0;outlineConnect=0;fontColor=#232F3E;gradientColor=none;fillColor=#DD344C;strokeColor=none;dashed=0;verticalLabelPosition=bottom;verticalAlign=top;align=center;html=1;fontSize=12;fontStyle=0;aspect=fixed;shape=mxgraph.aws4.location_service_track;hachureGap=4;jiggle=2;curveFitting=1;fontFamily=Architects Daughter;fontSource=https%3A%2F%2Ffonts.googleapis.com%2Fcss%3Ffamily%3DArchitects%2BDaughter;" parent="1" vertex="1">
          <mxGeometry x="-240" y="585" width="101" height="101" as="geometry" />
        </mxCell>
        <mxCell id="g--a_x8X6rh97y5fOFsP-147" value="skywalking" style="text;html=1;strokeColor=none;fillColor=none;align=center;verticalAlign=middle;whiteSpace=wrap;rounded=0;fontSize=20;fontFamily=Architects Daughter;" parent="1" vertex="1">
          <mxGeometry x="-219" y="707" width="60" height="30" as="geometry" />
        </mxCell>
        <mxCell id="g--a_x8X6rh97y5fOFsP-148" value="" style="shape=flexArrow;endArrow=classic;startArrow=classic;html=1;rounded=0;sketch=1;hachureGap=4;jiggle=2;curveFitting=1;fontFamily=Architects Daughter;fontSource=https%3A%2F%2Ffonts.googleapis.com%2Fcss%3Ffamily%3DArchitects%2BDaughter;fontSize=16;entryX=0;entryY=0.75;entryDx=0;entryDy=0;exitX=0.999;exitY=0.059;exitDx=0;exitDy=0;exitPerimeter=0;" parent="1" source="nwt9J91pUpCuGWy_Deiw-12" edge="1">
          <mxGeometry width="100" height="100" relative="1" as="geometry">
            <mxPoint x="-40" y="550" as="sourcePoint" />
            <mxPoint x="240" y="559.9999999999998" as="targetPoint" />
          </mxGeometry>
        </mxCell>
        <mxCell id="g--a_x8X6rh97y5fOFsP-149" value="链路追踪" style="text;html=1;strokeColor=none;fillColor=none;align=center;verticalAlign=middle;whiteSpace=wrap;rounded=0;fontSize=20;fontFamily=Architects Daughter;" parent="1" vertex="1">
          <mxGeometry x="60" y="500" width="100" height="30" as="geometry" />
        </mxCell>
        <mxCell id="g--a_x8X6rh97y5fOFsP-150" value="链路追踪" style="text;html=1;strokeColor=none;fillColor=none;align=center;verticalAlign=middle;whiteSpace=wrap;rounded=0;fontSize=20;fontFamily=Architects Daughter;" parent="1" vertex="1">
          <mxGeometry x="40" y="840" width="100" height="30" as="geometry" />
        </mxCell>
        <mxCell id="g--a_x8X6rh97y5fOFsP-153" value="" style="image;sketch=0;aspect=fixed;html=1;points=[];align=center;fontSize=12;image=img/lib/mscae/Docker.svg;hachureGap=4;jiggle=2;curveFitting=1;fontFamily=Architects Daughter;fontSource=https%3A%2F%2Ffonts.googleapis.com%2Fcss%3Ffamily%3DArchitects%2BDaughter;" parent="1" vertex="1">
          <mxGeometry x="-139" y="540" width="85.37" height="70" as="geometry" />
        </mxCell>
        <mxCell id="g--a_x8X6rh97y5fOFsP-155" value="" style="image;aspect=fixed;html=1;points=[];align=center;fontSize=12;image=img/lib/azure2/other/Grafana.svg;sketch=1;hachureGap=4;jiggle=2;curveFitting=1;fontFamily=Architects Daughter;fontSource=https%3A%2F%2Ffonts.googleapis.com%2Fcss%3Ffamily%3DArchitects%2BDaughter;" parent="1" vertex="1">
          <mxGeometry x="-280" y="1579" width="170" height="132" as="geometry" />
        </mxCell>
        <mxCell id="g--a_x8X6rh97y5fOFsP-157" value="" style="rounded=1;whiteSpace=wrap;html=1;fillColor=none;strokeColor=#3333FF;dashed=1;shadow=1;sketch=1;hachureGap=4;jiggle=2;curveFitting=1;fontFamily=Architects Daughter;fontSource=https%3A%2F%2Ffonts.googleapis.com%2Fcss%3Ffamily%3DArchitects%2BDaughter;fontSize=20;" parent="1" vertex="1">
          <mxGeometry x="-307.25" y="1540" width="224.5" height="240" as="geometry" />
        </mxCell>
        <mxCell id="g--a_x8X6rh97y5fOFsP-159" value="&lt;h2 style=&quot;margin: 10px 0px; padding: 0px; font-size: 21px; line-height: 1.5; font-family: Exo, -apple-system, &amp;quot;Open Sans&amp;quot;, HelveticaNeue-Light, &amp;quot;Helvetica Neue Light&amp;quot;, &amp;quot;Helvetica Neue&amp;quot;, &amp;quot;Hiragino Sans GB&amp;quot;, &amp;quot;Microsoft YaHei&amp;quot;, Helvetica, Arial, sans-serif; text-align: left; background-color: rgb(255, 255, 255);&quot; id=&quot;grafana模板中心&quot;&gt;Grafana&lt;/h2&gt;" style="text;html=1;strokeColor=none;fillColor=none;align=center;verticalAlign=middle;whiteSpace=wrap;rounded=0;fontSize=20;fontFamily=Architects Daughter;" parent="1" vertex="1">
          <mxGeometry x="-232.5" y="1724" width="60" height="30" as="geometry" />
        </mxCell>
        <mxCell id="g--a_x8X6rh97y5fOFsP-160" value="数据可视化" style="text;html=1;strokeColor=none;fillColor=none;align=center;verticalAlign=middle;whiteSpace=wrap;rounded=0;fontSize=20;fontFamily=Architects Daughter;" parent="1" vertex="1">
          <mxGeometry x="-255" y="1810" width="105" height="30" as="geometry" />
        </mxCell>
        <mxCell id="g--a_x8X6rh97y5fOFsP-161" value="" style="sketch=0;points=[[0,0,0],[0.25,0,0],[0.5,0,0],[0.75,0,0],[1,0,0],[0,1,0],[0.25,1,0],[0.5,1,0],[0.75,1,0],[1,1,0],[0,0.25,0],[0,0.5,0],[0,0.75,0],[1,0.25,0],[1,0.5,0],[1,0.75,0]];points=[[0,0,0],[0.25,0,0],[0.5,0,0],[0.75,0,0],[1,0,0],[0,1,0],[0.25,1,0],[0.5,1,0],[0.75,1,0],[1,1,0],[0,0.25,0],[0,0.5,0],[0,0.75,0],[1,0.25,0],[1,0.5,0],[1,0.75,0]];outlineConnect=0;fontColor=#232F3E;fillColor=#E7157B;strokeColor=#ffffff;dashed=0;verticalLabelPosition=bottom;verticalAlign=top;align=center;html=1;fontSize=12;fontStyle=0;aspect=fixed;shape=mxgraph.aws4.resourceIcon;resIcon=mxgraph.aws4.managed_service_for_prometheus;hachureGap=4;jiggle=2;curveFitting=1;fontFamily=Architects Daughter;fontSource=https%3A%2F%2Ffonts.googleapis.com%2Fcss%3Ffamily%3DArchitects%2BDaughter;" parent="1" vertex="1">
          <mxGeometry x="-255" y="1050" width="140" height="140" as="geometry" />
        </mxCell>
        <mxCell id="g--a_x8X6rh97y5fOFsP-163" value="Prometheus" style="text;html=1;strokeColor=none;fillColor=none;align=center;verticalAlign=middle;whiteSpace=wrap;rounded=0;fontSize=20;fontFamily=Architects Daughter;" parent="1" vertex="1">
          <mxGeometry x="-225" y="1210" width="60" height="30" as="geometry" />
        </mxCell>
        <mxCell id="g--a_x8X6rh97y5fOFsP-164" value="endpoint收集" style="text;html=1;strokeColor=none;fillColor=none;align=center;verticalAlign=middle;whiteSpace=wrap;rounded=0;fontSize=20;fontFamily=Architects Daughter;" parent="1" vertex="1">
          <mxGeometry x="-255" y="1280" width="135" height="30" as="geometry" />
        </mxCell>
        <mxCell id="g--a_x8X6rh97y5fOFsP-165" value="" style="image;sketch=0;aspect=fixed;html=1;points=[];align=center;fontSize=12;image=img/lib/mscae/Docker.svg;hachureGap=4;jiggle=2;curveFitting=1;fontFamily=Architects Daughter;fontSource=https%3A%2F%2Ffonts.googleapis.com%2Fcss%3Ffamily%3DArchitects%2BDaughter;" parent="1" vertex="1">
          <mxGeometry x="-145.37" y="1509" width="85.37" height="70" as="geometry" />
        </mxCell>
        <mxCell id="g--a_x8X6rh97y5fOFsP-166" value="" style="image;sketch=0;aspect=fixed;html=1;points=[];align=center;fontSize=12;image=img/lib/mscae/Docker.svg;hachureGap=4;jiggle=2;curveFitting=1;fontFamily=Architects Daughter;fontSource=https%3A%2F%2Ffonts.googleapis.com%2Fcss%3Ffamily%3DArchitects%2BDaughter;" parent="1" vertex="1">
          <mxGeometry x="-121.5" y="1000" width="85.37" height="70" as="geometry" />
        </mxCell>
        <mxCell id="g--a_x8X6rh97y5fOFsP-167" value="" style="shape=flexArrow;endArrow=classic;startArrow=classic;html=1;rounded=0;sketch=1;hachureGap=4;jiggle=2;curveFitting=1;fontFamily=Architects Daughter;fontSource=https%3A%2F%2Ffonts.googleapis.com%2Fcss%3Ffamily%3DArchitects%2BDaughter;fontSize=16;entryX=-0.001;entryY=0.122;entryDx=0;entryDy=0;entryPerimeter=0;" parent="1" edge="1">
          <mxGeometry width="100" height="100" relative="1" as="geometry">
            <mxPoint x="-39" y="900" as="sourcePoint" />
            <mxPoint x="220" y="902" as="targetPoint" />
          </mxGeometry>
        </mxCell>
        <mxCell id="g--a_x8X6rh97y5fOFsP-168" value="endpoint收集" style="text;html=1;strokeColor=none;fillColor=none;align=center;verticalAlign=middle;whiteSpace=wrap;rounded=0;fontSize=20;fontFamily=Architects Daughter;" parent="1" vertex="1">
          <mxGeometry x="30" y="1240" width="130" height="30" as="geometry" />
        </mxCell>
        <mxCell id="g--a_x8X6rh97y5fOFsP-169" value="endpoint收集" style="text;html=1;strokeColor=none;fillColor=none;align=center;verticalAlign=middle;whiteSpace=wrap;rounded=0;fontSize=20;fontFamily=Architects Daughter;" parent="1" vertex="1">
          <mxGeometry x="30" y="1610" width="130" height="30" as="geometry" />
        </mxCell>
        <mxCell id="g--a_x8X6rh97y5fOFsP-170" value="" style="shape=flexArrow;endArrow=classic;startArrow=classic;html=1;rounded=0;sketch=1;hachureGap=4;jiggle=2;curveFitting=1;fontFamily=Architects Daughter;fontSource=https%3A%2F%2Ffonts.googleapis.com%2Fcss%3Ffamily%3DArchitects%2BDaughter;fontSize=16;entryX=-0.001;entryY=0.122;entryDx=0;entryDy=0;entryPerimeter=0;" parent="1" edge="1">
          <mxGeometry width="100" height="100" relative="1" as="geometry">
            <mxPoint x="-39" y="1710" as="sourcePoint" />
            <mxPoint x="220" y="1712" as="targetPoint" />
          </mxGeometry>
        </mxCell>
        <mxCell id="g--a_x8X6rh97y5fOFsP-171" value="" style="image;sketch=0;aspect=fixed;html=1;points=[];align=center;fontSize=12;image=img/lib/mscae/Docker.svg;hachureGap=4;jiggle=2;curveFitting=1;fontFamily=Architects Daughter;fontSource=https%3A%2F%2Ffonts.googleapis.com%2Fcss%3Ffamily%3DArchitects%2BDaughter;" parent="1" vertex="1">
          <mxGeometry x="2390" y="1390" width="120" height="98.4" as="geometry" />
        </mxCell>
        <mxCell id="g--a_x8X6rh97y5fOFsP-172" value="微服务" style="text;html=1;strokeColor=none;fillColor=none;align=center;verticalAlign=middle;whiteSpace=wrap;rounded=0;fontSize=20;fontFamily=Architects Daughter;" parent="1" vertex="1">
          <mxGeometry x="310" y="850" width="120" height="30" as="geometry" />
        </mxCell>
        <mxCell id="g--a_x8X6rh97y5fOFsP-174" value="" style="rounded=1;whiteSpace=wrap;html=1;fillColor=none;strokeColor=#3333FF;dashed=1;shadow=1;sketch=1;hachureGap=4;jiggle=2;curveFitting=1;fontFamily=Architects Daughter;fontSource=https%3A%2F%2Ffonts.googleapis.com%2Fcss%3Ffamily%3DArchitects%2BDaughter;fontSize=20;" parent="1" vertex="1">
          <mxGeometry x="310" y="915" width="230" height="395" as="geometry" />
        </mxCell>
        <mxCell id="g--a_x8X6rh97y5fOFsP-175" value="" style="rounded=1;whiteSpace=wrap;html=1;fillColor=none;strokeColor=#3333FF;dashed=1;shadow=1;sketch=1;hachureGap=4;jiggle=2;curveFitting=1;fontFamily=Architects Daughter;fontSource=https%3A%2F%2Ffonts.googleapis.com%2Fcss%3Ffamily%3DArchitects%2BDaughter;fontSize=20;" parent="1" vertex="1">
          <mxGeometry x="310" y="1390" width="230" height="330" as="geometry" />
        </mxCell>
        <mxCell id="g--a_x8X6rh97y5fOFsP-176" value="" style="rounded=1;whiteSpace=wrap;html=1;fillColor=none;strokeColor=#3333FF;dashed=1;shadow=1;sketch=1;hachureGap=4;jiggle=2;curveFitting=1;fontFamily=Architects Daughter;fontSource=https%3A%2F%2Ffonts.googleapis.com%2Fcss%3Ffamily%3DArchitects%2BDaughter;fontSize=20;" parent="1" vertex="1">
          <mxGeometry x="1040" y="915" width="230" height="385" as="geometry" />
        </mxCell>
        <mxCell id="g--a_x8X6rh97y5fOFsP-177" value="" style="rounded=1;whiteSpace=wrap;html=1;fillColor=none;strokeColor=#3333FF;dashed=1;shadow=1;sketch=1;hachureGap=4;jiggle=2;curveFitting=1;fontFamily=Architects Daughter;fontSource=https%3A%2F%2Ffonts.googleapis.com%2Fcss%3Ffamily%3DArchitects%2BDaughter;fontSize=20;" parent="1" vertex="1">
          <mxGeometry x="650" y="920" width="230" height="380" as="geometry" />
        </mxCell>
        <mxCell id="g--a_x8X6rh97y5fOFsP-178" value="A-server" style="rounded=1;whiteSpace=wrap;html=1;fillColor=#d5e8d4;strokeColor=#82b366;glass=1;shadow=1;labelBorderColor=none;gradientColor=#97d077;sketch=1;hachureGap=4;jiggle=2;curveFitting=1;fontFamily=Architects Daughter;fontSource=https%3A%2F%2Ffonts.googleapis.com%2Fcss%3Ffamily%3DArchitects%2BDaughter;fontSize=20;" parent="1" vertex="1">
          <mxGeometry x="325" y="974" width="200" height="70" as="geometry" />
        </mxCell>
        <mxCell id="g--a_x8X6rh97y5fOFsP-179" value="A-server" style="rounded=1;whiteSpace=wrap;html=1;fillColor=#d5e8d4;strokeColor=#82b366;glass=1;shadow=1;labelBorderColor=none;gradientColor=#97d077;sketch=1;hachureGap=4;jiggle=2;curveFitting=1;fontFamily=Architects Daughter;fontSource=https%3A%2F%2Ffonts.googleapis.com%2Fcss%3Ffamily%3DArchitects%2BDaughter;fontSize=20;" parent="1" vertex="1">
          <mxGeometry x="325" y="1190" width="200" height="70" as="geometry" />
        </mxCell>
        <mxCell id="g--a_x8X6rh97y5fOFsP-180" value="A-server" style="rounded=1;whiteSpace=wrap;html=1;fillColor=#d5e8d4;strokeColor=#82b366;glass=1;shadow=1;labelBorderColor=none;gradientColor=#97d077;sketch=1;hachureGap=4;jiggle=2;curveFitting=1;fontFamily=Architects Daughter;fontSource=https%3A%2F%2Ffonts.googleapis.com%2Fcss%3Ffamily%3DArchitects%2BDaughter;fontSize=20;" parent="1" vertex="1">
          <mxGeometry x="325" y="1090" width="200" height="70" as="geometry" />
        </mxCell>
        <mxCell id="g--a_x8X6rh97y5fOFsP-181" value="B-server" style="rounded=1;whiteSpace=wrap;html=1;fillColor=#d5e8d4;strokeColor=#82b366;glass=1;shadow=1;labelBorderColor=none;gradientColor=#97d077;sketch=1;hachureGap=4;jiggle=2;curveFitting=1;fontFamily=Architects Daughter;fontSource=https%3A%2F%2Ffonts.googleapis.com%2Fcss%3Ffamily%3DArchitects%2BDaughter;fontSize=20;" parent="1" vertex="1">
          <mxGeometry x="665" y="970" width="200" height="70" as="geometry" />
        </mxCell>
        <mxCell id="g--a_x8X6rh97y5fOFsP-182" value="B-server" style="rounded=1;whiteSpace=wrap;html=1;fillColor=#d5e8d4;strokeColor=#82b366;glass=1;shadow=1;labelBorderColor=none;gradientColor=#97d077;sketch=1;hachureGap=4;jiggle=2;curveFitting=1;fontFamily=Architects Daughter;fontSource=https%3A%2F%2Ffonts.googleapis.com%2Fcss%3Ffamily%3DArchitects%2BDaughter;fontSize=20;" parent="1" vertex="1">
          <mxGeometry x="660" y="1190" width="200" height="70" as="geometry" />
        </mxCell>
        <mxCell id="g--a_x8X6rh97y5fOFsP-183" value="B-server" style="rounded=1;whiteSpace=wrap;html=1;fillColor=#d5e8d4;strokeColor=#82b366;glass=1;shadow=1;labelBorderColor=none;gradientColor=#97d077;sketch=1;hachureGap=4;jiggle=2;curveFitting=1;fontFamily=Architects Daughter;fontSource=https%3A%2F%2Ffonts.googleapis.com%2Fcss%3Ffamily%3DArchitects%2BDaughter;fontSize=20;" parent="1" vertex="1">
          <mxGeometry x="660" y="1080" width="200" height="70" as="geometry" />
        </mxCell>
        <mxCell id="g--a_x8X6rh97y5fOFsP-184" value="C-server" style="rounded=1;whiteSpace=wrap;html=1;fillColor=#d5e8d4;strokeColor=#82b366;glass=1;shadow=1;labelBorderColor=none;gradientColor=#97d077;sketch=1;hachureGap=4;jiggle=2;curveFitting=1;fontFamily=Architects Daughter;fontSource=https%3A%2F%2Ffonts.googleapis.com%2Fcss%3Ffamily%3DArchitects%2BDaughter;fontSize=20;" parent="1" vertex="1">
          <mxGeometry x="1055" y="960" width="200" height="70" as="geometry" />
        </mxCell>
        <mxCell id="g--a_x8X6rh97y5fOFsP-185" value="C-server" style="rounded=1;whiteSpace=wrap;html=1;fillColor=#d5e8d4;strokeColor=#82b366;glass=1;shadow=1;labelBorderColor=none;gradientColor=#97d077;sketch=1;hachureGap=4;jiggle=2;curveFitting=1;fontFamily=Architects Daughter;fontSource=https%3A%2F%2Ffonts.googleapis.com%2Fcss%3Ffamily%3DArchitects%2BDaughter;fontSize=20;" parent="1" vertex="1">
          <mxGeometry x="1055" y="1202" width="200" height="70" as="geometry" />
        </mxCell>
        <mxCell id="g--a_x8X6rh97y5fOFsP-186" value="C-server" style="rounded=1;whiteSpace=wrap;html=1;fillColor=#d5e8d4;strokeColor=#82b366;glass=1;shadow=1;labelBorderColor=none;gradientColor=#97d077;sketch=1;hachureGap=4;jiggle=2;curveFitting=1;fontFamily=Architects Daughter;fontSource=https%3A%2F%2Ffonts.googleapis.com%2Fcss%3Ffamily%3DArchitects%2BDaughter;fontSize=20;" parent="1" vertex="1">
          <mxGeometry x="1055" y="1080" width="200" height="70" as="geometry" />
        </mxCell>
        <mxCell id="g--a_x8X6rh97y5fOFsP-187" value="C-server" style="rounded=1;whiteSpace=wrap;html=1;fillColor=#d5e8d4;strokeColor=#82b366;glass=1;shadow=1;labelBorderColor=none;gradientColor=#97d077;sketch=1;hachureGap=4;jiggle=2;curveFitting=1;fontFamily=Architects Daughter;fontSource=https%3A%2F%2Ffonts.googleapis.com%2Fcss%3Ffamily%3DArchitects%2BDaughter;fontSize=20;" parent="1" vertex="1">
          <mxGeometry x="325" y="1420" width="200" height="70" as="geometry" />
        </mxCell>
        <mxCell id="g--a_x8X6rh97y5fOFsP-189" value="C-server" style="rounded=1;whiteSpace=wrap;html=1;fillColor=#d5e8d4;strokeColor=#82b366;glass=1;shadow=1;labelBorderColor=none;gradientColor=#97d077;sketch=1;hachureGap=4;jiggle=2;curveFitting=1;fontFamily=Architects Daughter;fontSource=https%3A%2F%2Ffonts.googleapis.com%2Fcss%3Ffamily%3DArchitects%2BDaughter;fontSize=20;" parent="1" vertex="1">
          <mxGeometry x="325" y="1630" width="200" height="70" as="geometry" />
        </mxCell>
        <mxCell id="g--a_x8X6rh97y5fOFsP-190" value="C-server" style="rounded=1;whiteSpace=wrap;html=1;fillColor=#d5e8d4;strokeColor=#82b366;glass=1;shadow=1;labelBorderColor=none;gradientColor=#97d077;sketch=1;hachureGap=4;jiggle=2;curveFitting=1;fontFamily=Architects Daughter;fontSource=https%3A%2F%2Ffonts.googleapis.com%2Fcss%3Ffamily%3DArchitects%2BDaughter;fontSize=20;" parent="1" vertex="1">
          <mxGeometry x="325" y="1530" width="200" height="70" as="geometry" />
        </mxCell>
        <mxCell id="g--a_x8X6rh97y5fOFsP-191" value="" style="rounded=1;whiteSpace=wrap;html=1;fillColor=none;strokeColor=#3333FF;dashed=1;shadow=1;sketch=1;hachureGap=4;jiggle=2;curveFitting=1;fontFamily=Architects Daughter;fontSource=https%3A%2F%2Ffonts.googleapis.com%2Fcss%3Ffamily%3DArchitects%2BDaughter;fontSize=20;" parent="1" vertex="1">
          <mxGeometry x="1040" y="1390" width="220" height="340" as="geometry" />
        </mxCell>
        <mxCell id="g--a_x8X6rh97y5fOFsP-193" value="D-server" style="rounded=1;whiteSpace=wrap;html=1;fillColor=#d5e8d4;strokeColor=#82b366;glass=1;shadow=1;labelBorderColor=none;gradientColor=#97d077;sketch=1;hachureGap=4;jiggle=2;curveFitting=1;fontFamily=Architects Daughter;fontSource=https%3A%2F%2Ffonts.googleapis.com%2Fcss%3Ffamily%3DArchitects%2BDaughter;fontSize=20;" parent="1" vertex="1">
          <mxGeometry x="1050" y="1620" width="200" height="70" as="geometry" />
        </mxCell>
        <mxCell id="g--a_x8X6rh97y5fOFsP-194" value="D-server" style="rounded=1;whiteSpace=wrap;html=1;fillColor=#d5e8d4;strokeColor=#82b366;glass=1;shadow=1;labelBorderColor=none;gradientColor=#97d077;sketch=1;hachureGap=4;jiggle=2;curveFitting=1;fontFamily=Architects Daughter;fontSource=https%3A%2F%2Ffonts.googleapis.com%2Fcss%3Ffamily%3DArchitects%2BDaughter;fontSize=20;" parent="1" vertex="1">
          <mxGeometry x="1050" y="1520" width="200" height="70" as="geometry" />
        </mxCell>
        <mxCell id="g--a_x8X6rh97y5fOFsP-195" value="D-server" style="rounded=1;whiteSpace=wrap;html=1;fillColor=#d5e8d4;strokeColor=#82b366;glass=1;shadow=1;labelBorderColor=none;gradientColor=#97d077;sketch=1;hachureGap=4;jiggle=2;curveFitting=1;fontFamily=Architects Daughter;fontSource=https%3A%2F%2Ffonts.googleapis.com%2Fcss%3Ffamily%3DArchitects%2BDaughter;fontSize=20;" parent="1" vertex="1">
          <mxGeometry x="1050" y="1420" width="200" height="70" as="geometry" />
        </mxCell>
        <mxCell id="g--a_x8X6rh97y5fOFsP-197" value="。。。。" style="text;html=1;strokeColor=none;fillColor=none;align=center;verticalAlign=middle;whiteSpace=wrap;rounded=0;fontSize=20;fontFamily=Architects Daughter;" parent="1" vertex="1">
          <mxGeometry x="700" y="1520" width="140" height="30" as="geometry" />
        </mxCell>
        <mxCell id="g--a_x8X6rh97y5fOFsP-201" value="" style="rounded=1;whiteSpace=wrap;html=1;fillColor=none;strokeColor=#3333FF;dashed=1;shadow=1;sketch=1;hachureGap=4;jiggle=2;curveFitting=1;fontFamily=Architects Daughter;fontSource=https%3A%2F%2Ffonts.googleapis.com%2Fcss%3Ffamily%3DArchitects%2BDaughter;fontSize=20;" parent="1" vertex="1">
          <mxGeometry x="-210" y="2250" width="530" height="230" as="geometry" />
        </mxCell>
        <mxCell id="g--a_x8X6rh97y5fOFsP-202" value="" style="image;sketch=0;aspect=fixed;html=1;points=[];align=center;fontSize=12;image=img/lib/mscae/Cache_Redis_Product.svg;hachureGap=4;jiggle=2;curveFitting=1;fontFamily=Architects Daughter;fontSource=https%3A%2F%2Ffonts.googleapis.com%2Fcss%3Ffamily%3DArchitects%2BDaughter;" parent="1" vertex="1">
          <mxGeometry x="-160" y="2330" width="107.15" height="90" as="geometry" />
        </mxCell>
        <mxCell id="g--a_x8X6rh97y5fOFsP-203" value="" style="image;sketch=0;aspect=fixed;html=1;points=[];align=center;fontSize=12;image=img/lib/mscae/Cache_Redis_Product.svg;hachureGap=4;jiggle=2;curveFitting=1;fontFamily=Architects Daughter;fontSource=https%3A%2F%2Ffonts.googleapis.com%2Fcss%3Ffamily%3DArchitects%2BDaughter;" parent="1" vertex="1">
          <mxGeometry x="160" y="2330" width="107.15" height="90" as="geometry" />
        </mxCell>
        <mxCell id="g--a_x8X6rh97y5fOFsP-204" value="" style="image;sketch=0;aspect=fixed;html=1;points=[];align=center;fontSize=12;image=img/lib/mscae/Cache_Redis_Product.svg;hachureGap=4;jiggle=2;curveFitting=1;fontFamily=Architects Daughter;fontSource=https%3A%2F%2Ffonts.googleapis.com%2Fcss%3Ffamily%3DArchitects%2BDaughter;" parent="1" vertex="1">
          <mxGeometry y="2330" width="107.15" height="90" as="geometry" />
        </mxCell>
        <mxCell id="g--a_x8X6rh97y5fOFsP-205" value="redis集群" style="text;html=1;strokeColor=none;fillColor=none;align=center;verticalAlign=middle;whiteSpace=wrap;rounded=0;fontSize=20;fontFamily=Architects Daughter;" parent="1" vertex="1">
          <mxGeometry x="-193.63" y="2280" width="140" height="30" as="geometry" />
        </mxCell>
        <mxCell id="g--a_x8X6rh97y5fOFsP-206" value="数据存储服务" style="text;html=1;strokeColor=none;fillColor=none;align=center;verticalAlign=middle;whiteSpace=wrap;rounded=0;fontSize=20;fontFamily=Architects Daughter;" parent="1" vertex="1">
          <mxGeometry x="-270" y="2200" width="180" height="30" as="geometry" />
        </mxCell>
        <mxCell id="fSu5U68FAcuSb7UhGb1r-16" style="rounded=0;sketch=1;hachureGap=4;jiggle=2;curveFitting=1;orthogonalLoop=1;jettySize=auto;html=1;fontFamily=Architects Daughter;fontSource=https%3A%2F%2Ffonts.googleapis.com%2Fcss%3Ffamily%3DArchitects%2BDaughter;fontSize=16;" edge="1" parent="1" source="g--a_x8X6rh97y5fOFsP-208" target="fSu5U68FAcuSb7UhGb1r-14">
          <mxGeometry relative="1" as="geometry" />
        </mxCell>
        <mxCell id="g--a_x8X6rh97y5fOFsP-208" value="" style="rounded=1;whiteSpace=wrap;html=1;fillColor=none;strokeColor=#3333FF;dashed=1;shadow=1;sketch=1;hachureGap=4;jiggle=2;curveFitting=1;fontFamily=Architects Daughter;fontSource=https%3A%2F%2Ffonts.googleapis.com%2Fcss%3Ffamily%3DArchitects%2BDaughter;fontSize=20;" parent="1" vertex="1">
          <mxGeometry x="480" y="2245" width="425" height="225" as="geometry" />
        </mxCell>
        <mxCell id="g--a_x8X6rh97y5fOFsP-209" value="" style="image;aspect=fixed;html=1;points=[];align=center;fontSize=12;image=img/lib/azure2/databases/Azure_Database_MySQL_Server.svg;sketch=1;hachureGap=4;jiggle=2;curveFitting=1;fontFamily=Architects Daughter;fontSource=https%3A%2F%2Ffonts.googleapis.com%2Fcss%3Ffamily%3DArchitects%2BDaughter;" parent="1" vertex="1">
          <mxGeometry x="540" y="2320" width="75" height="100" as="geometry" />
        </mxCell>
        <mxCell id="g--a_x8X6rh97y5fOFsP-210" value="" style="image;aspect=fixed;html=1;points=[];align=center;fontSize=12;image=img/lib/azure2/databases/Azure_Database_MySQL_Server.svg;sketch=1;hachureGap=4;jiggle=2;curveFitting=1;fontFamily=Architects Daughter;fontSource=https%3A%2F%2Ffonts.googleapis.com%2Fcss%3Ffamily%3DArchitects%2BDaughter;" parent="1" vertex="1">
          <mxGeometry x="790" y="2330" width="75" height="100" as="geometry" />
        </mxCell>
        <mxCell id="g--a_x8X6rh97y5fOFsP-211" value="" style="image;aspect=fixed;html=1;points=[];align=center;fontSize=12;image=img/lib/azure2/databases/Azure_Database_MySQL_Server.svg;sketch=1;hachureGap=4;jiggle=2;curveFitting=1;fontFamily=Architects Daughter;fontSource=https%3A%2F%2Ffonts.googleapis.com%2Fcss%3Ffamily%3DArchitects%2BDaughter;" parent="1" vertex="1">
          <mxGeometry x="665" y="2325" width="75" height="100" as="geometry" />
        </mxCell>
        <mxCell id="g--a_x8X6rh97y5fOFsP-212" value="MySql主从集群" style="text;html=1;strokeColor=none;fillColor=none;align=center;verticalAlign=middle;whiteSpace=wrap;rounded=0;fontSize=20;fontFamily=Architects Daughter;" parent="1" vertex="1">
          <mxGeometry x="470" y="2270" width="170" height="30" as="geometry" />
        </mxCell>
        <mxCell id="g--a_x8X6rh97y5fOFsP-213" value="Amazon Elasticsearch Service" style="sketch=0;outlineConnect=0;fontColor=#232F3E;gradientColor=none;strokeColor=#ffffff;fillColor=#232F3E;dashed=0;verticalLabelPosition=middle;verticalAlign=bottom;align=center;html=1;whiteSpace=wrap;fontSize=10;fontStyle=1;spacing=3;shape=mxgraph.aws4.productIcon;prIcon=mxgraph.aws4.elasticsearch_service;hachureGap=4;jiggle=2;curveFitting=1;fontFamily=Architects Daughter;fontSource=https%3A%2F%2Ffonts.googleapis.com%2Fcss%3Ffamily%3DArchitects%2BDaughter;" parent="1" vertex="1">
          <mxGeometry x="1005" y="2320" width="100" height="95" as="geometry" />
        </mxCell>
        <mxCell id="g--a_x8X6rh97y5fOFsP-214" value="Amazon Elasticsearch Service" style="sketch=0;outlineConnect=0;fontColor=#232F3E;gradientColor=none;strokeColor=#ffffff;fillColor=#232F3E;dashed=0;verticalLabelPosition=middle;verticalAlign=bottom;align=center;html=1;whiteSpace=wrap;fontSize=10;fontStyle=1;spacing=3;shape=mxgraph.aws4.productIcon;prIcon=mxgraph.aws4.elasticsearch_service;hachureGap=4;jiggle=2;curveFitting=1;fontFamily=Architects Daughter;fontSource=https%3A%2F%2Ffonts.googleapis.com%2Fcss%3Ffamily%3DArchitects%2BDaughter;" parent="1" vertex="1">
          <mxGeometry x="1240" y="2320" width="100" height="95" as="geometry" />
        </mxCell>
        <mxCell id="g--a_x8X6rh97y5fOFsP-215" value="Amazon Elasticsearch Service" style="sketch=0;outlineConnect=0;fontColor=#232F3E;gradientColor=none;strokeColor=#ffffff;fillColor=#232F3E;dashed=0;verticalLabelPosition=middle;verticalAlign=bottom;align=center;html=1;whiteSpace=wrap;fontSize=10;fontStyle=1;spacing=3;shape=mxgraph.aws4.productIcon;prIcon=mxgraph.aws4.elasticsearch_service;hachureGap=4;jiggle=2;curveFitting=1;fontFamily=Architects Daughter;fontSource=https%3A%2F%2Ffonts.googleapis.com%2Fcss%3Ffamily%3DArchitects%2BDaughter;" parent="1" vertex="1">
          <mxGeometry x="1123" y="2320" width="100" height="95" as="geometry" />
        </mxCell>
        <mxCell id="g--a_x8X6rh97y5fOFsP-216" value="" style="rounded=1;whiteSpace=wrap;html=1;fillColor=none;strokeColor=#3333FF;dashed=1;shadow=1;sketch=1;hachureGap=4;jiggle=2;curveFitting=1;fontFamily=Architects Daughter;fontSource=https%3A%2F%2Ffonts.googleapis.com%2Fcss%3Ffamily%3DArchitects%2BDaughter;fontSize=20;" parent="1" vertex="1">
          <mxGeometry x="970" y="2250" width="400" height="230" as="geometry" />
        </mxCell>
        <mxCell id="g--a_x8X6rh97y5fOFsP-217" value="ElasticSearch集群" style="text;html=1;strokeColor=none;fillColor=none;align=center;verticalAlign=middle;whiteSpace=wrap;rounded=0;fontSize=20;fontFamily=Architects Daughter;" parent="1" vertex="1">
          <mxGeometry x="1024.27" y="2270" width="60" height="30" as="geometry" />
        </mxCell>
        <mxCell id="g--a_x8X6rh97y5fOFsP-222" value="" style="rounded=1;whiteSpace=wrap;html=1;fillColor=none;strokeColor=#3333FF;dashed=1;shadow=1;sketch=1;hachureGap=4;jiggle=2;curveFitting=1;fontFamily=Architects Daughter;fontSource=https%3A%2F%2Ffonts.googleapis.com%2Fcss%3Ffamily%3DArchitects%2BDaughter;fontSize=20;" parent="1" vertex="1">
          <mxGeometry x="255" y="1830" width="1020" height="300" as="geometry" />
        </mxCell>
        <mxCell id="g--a_x8X6rh97y5fOFsP-223" value="第三方服务平台技术支持sdk" style="text;html=1;strokeColor=none;fillColor=none;align=center;verticalAlign=middle;whiteSpace=wrap;rounded=0;fontSize=20;fontFamily=Architects Daughter;" parent="1" vertex="1">
          <mxGeometry x="240" y="1850" width="320" height="30" as="geometry" />
        </mxCell>
        <mxCell id="g--a_x8X6rh97y5fOFsP-225" value="" style="dashed=0;outlineConnect=0;html=1;align=center;labelPosition=center;verticalLabelPosition=bottom;verticalAlign=top;shape=mxgraph.webicons.baidu;fillColor=#738FE8;gradientColor=#1F2470;sketch=1;hachureGap=4;jiggle=2;curveFitting=1;fontFamily=Architects Daughter;fontSource=https%3A%2F%2Ffonts.googleapis.com%2Fcss%3Ffamily%3DArchitects%2BDaughter;fontSize=20;" parent="1" vertex="1">
          <mxGeometry x="340" y="1920" width="102.4" height="102.4" as="geometry" />
        </mxCell>
        <mxCell id="g--a_x8X6rh97y5fOFsP-226" value="百度云" style="text;html=1;strokeColor=none;fillColor=none;align=center;verticalAlign=middle;whiteSpace=wrap;rounded=0;fontSize=20;fontFamily=Architects Daughter;" parent="1" vertex="1">
          <mxGeometry x="370" y="2050" width="80" height="30" as="geometry" />
        </mxCell>
        <mxCell id="g--a_x8X6rh97y5fOFsP-227" value="" style="editableCssRules=.*;html=1;shape=image;verticalLabelPosition=bottom;labelBackgroundColor=#ffffff;verticalAlign=top;aspect=fixed;imageAspect=0;image=data:image/svg+xml,PHN2ZyB4bWxucz0iaHR0cDovL3d3dy53My5vcmcvMjAwMC9zdmciIHhtbG5zOnY9Imh0dHBzOi8vdmVjdGEuaW8vbmFubyIgd2lkdGg9IjIwIiBoZWlnaHQ9IjE1IiB2aWV3Qm94PSIwIDAgMjAgMTUiPiYjeGE7CTxzdHlsZSB0eXBlPSJ0ZXh0L2NzcyI+JiN4YTsJLnN0MHtmaWxsOiM0Mjg1ZjQ7fSYjeGE7CTwvc3R5bGU+JiN4YTsJPHBhdGggY2xhc3M9InN0MCIgZD0iTTMgN2gxNGwtNy03em0xNS41IDJoLTFhMS40NCAxLjQ0IDAgMCAwLS43NS4yMkExLjQ0IDEuNDQgMCAwIDAgMTYgOWgtMWExLjU0IDEuNTQgMCAwIDAtMS41IDEuNVYxNUgxNXYtNC41aDFWMTVoMS41di00LjVoMVYxNUgyMHYtNC41QTEuNTQgMS41NCAwIDAgMCAxOC41IDl6TTUgOUg0YTEuNDQgMS40NCAwIDAgMC0uNzUuMjJBMS40NCAxLjQ0IDAgMCAwIDIuNSA5aC0xQTEuNTQgMS41NCAwIDAgMCAwIDEwLjVWMTVoMS41di00LjVoMVYxNUg0di00LjVoMVYxNWgxLjV2LTQuNUExLjU0IDEuNTQgMCAwIDAgNSA5em0yLjUgMHY2aDV2LTEuNUg5di0uNzVoMi41di0xLjVIOXYtLjc1aDMuNVY5eiIvPiYjeGE7PC9zdmc+;sketch=1;hachureGap=4;jiggle=2;curveFitting=1;fontFamily=Architects Daughter;fontSource=https%3A%2F%2Ffonts.googleapis.com%2Fcss%3Ffamily%3DArchitects%2BDaughter;fontSize=20;" parent="1" vertex="1">
          <mxGeometry x="540" y="1920" width="146.67" height="110" as="geometry" />
        </mxCell>
        <mxCell id="g--a_x8X6rh97y5fOFsP-228" value="华为云" style="text;html=1;strokeColor=none;fillColor=none;align=center;verticalAlign=middle;whiteSpace=wrap;rounded=0;fontSize=20;fontFamily=Architects Daughter;" parent="1" vertex="1">
          <mxGeometry x="569.84" y="2060" width="87" height="30" as="geometry" />
        </mxCell>
        <mxCell id="g--a_x8X6rh97y5fOFsP-229" value="" style="shape=image;html=1;verticalAlign=top;verticalLabelPosition=bottom;labelBackgroundColor=#ffffff;imageAspect=0;aspect=fixed;image=https://cdn3.iconfinder.com/data/icons/social-networks-34/96/social-20-128.png;sketch=1;hachureGap=4;jiggle=2;curveFitting=1;fontFamily=Architects Daughter;fontSource=https%3A%2F%2Ffonts.googleapis.com%2Fcss%3Ffamily%3DArchitects%2BDaughter;fontSize=20;" parent="1" vertex="1">
          <mxGeometry x="777" y="1916" width="128" height="128" as="geometry" />
        </mxCell>
        <mxCell id="g--a_x8X6rh97y5fOFsP-230" value="阿里云" style="text;html=1;strokeColor=none;fillColor=none;align=center;verticalAlign=middle;whiteSpace=wrap;rounded=0;fontSize=20;fontFamily=Architects Daughter;" parent="1" vertex="1">
          <mxGeometry x="791.5" y="2060" width="99" height="30" as="geometry" />
        </mxCell>
        <mxCell id="g--a_x8X6rh97y5fOFsP-231" value="。。。。" style="text;html=1;strokeColor=none;fillColor=none;align=center;verticalAlign=middle;whiteSpace=wrap;rounded=0;fontSize=20;fontFamily=Architects Daughter;" parent="1" vertex="1">
          <mxGeometry x="1020" y="1980" width="60" height="30" as="geometry" />
        </mxCell>
        <mxCell id="g--a_x8X6rh97y5fOFsP-232" value="auth-server" style="rounded=1;whiteSpace=wrap;html=1;fillColor=#d5e8d4;strokeColor=#82b366;glass=1;shadow=1;labelBorderColor=none;gradientColor=#97d077;sketch=1;hachureGap=4;jiggle=2;curveFitting=1;fontFamily=Architects Daughter;fontSource=https%3A%2F%2Ffonts.googleapis.com%2Fcss%3Ffamily%3DArchitects%2BDaughter;fontSize=20;" parent="1" vertex="1">
          <mxGeometry x="1360" y="1870" width="200" height="70" as="geometry" />
        </mxCell>
        <mxCell id="g--a_x8X6rh97y5fOFsP-236" value="" style="shape=flexArrow;endArrow=classic;startArrow=classic;html=1;rounded=0;sketch=1;hachureGap=4;jiggle=2;curveFitting=1;fontFamily=Architects Daughter;fontSource=https%3A%2F%2Ffonts.googleapis.com%2Fcss%3Ffamily%3DArchitects%2BDaughter;fontSize=16;entryX=-0.003;entryY=0.164;entryDx=0;entryDy=0;entryPerimeter=0;" parent="1" edge="1">
          <mxGeometry width="100" height="100" relative="1" as="geometry">
            <mxPoint x="1591" y="1941" as="sourcePoint" />
            <mxPoint x="1790" y="1940" as="targetPoint" />
          </mxGeometry>
        </mxCell>
        <mxCell id="g--a_x8X6rh97y5fOFsP-237" value="埋点" style="text;html=1;strokeColor=none;fillColor=none;align=center;verticalAlign=middle;whiteSpace=wrap;rounded=0;fontSize=20;fontFamily=Architects Daughter;" parent="1" vertex="1">
          <mxGeometry x="1663" y="1880" width="60" height="30" as="geometry" />
        </mxCell>
        <mxCell id="g--a_x8X6rh97y5fOFsP-241" value="" style="rounded=1;whiteSpace=wrap;html=1;fillColor=none;strokeColor=#3333FF;dashed=1;shadow=1;sketch=1;hachureGap=4;jiggle=2;curveFitting=1;fontFamily=Architects Daughter;fontSource=https%3A%2F%2Ffonts.googleapis.com%2Fcss%3Ffamily%3DArchitects%2BDaughter;fontSize=20;" parent="1" vertex="1">
          <mxGeometry x="1500" y="2245" width="610" height="235" as="geometry" />
        </mxCell>
        <mxCell id="g--a_x8X6rh97y5fOFsP-243" value="NFS文件存储" style="text;html=1;strokeColor=none;fillColor=none;align=center;verticalAlign=middle;whiteSpace=wrap;rounded=0;fontSize=20;fontFamily=Architects Daughter;" parent="1" vertex="1">
          <mxGeometry x="1530" y="2270" width="157" height="30" as="geometry" />
        </mxCell>
        <mxCell id="g--a_x8X6rh97y5fOFsP-244" value="" style="shape=image;html=1;verticalAlign=top;verticalLabelPosition=bottom;labelBackgroundColor=#ffffff;imageAspect=0;aspect=fixed;image=https://cdn1.iconfinder.com/data/icons/bnw/128x128/devices/nfs_mount.png;sketch=1;hachureGap=4;jiggle=2;curveFitting=1;fontFamily=Architects Daughter;fontSource=https%3A%2F%2Ffonts.googleapis.com%2Fcss%3Ffamily%3DArchitects%2BDaughter;fontSize=20;" parent="1" vertex="1">
          <mxGeometry x="1544.5" y="2310" width="128" height="128" as="geometry" />
        </mxCell>
        <mxCell id="g--a_x8X6rh97y5fOFsP-245" value="" style="shape=image;html=1;verticalAlign=top;verticalLabelPosition=bottom;labelBackgroundColor=#ffffff;imageAspect=0;aspect=fixed;image=https://cdn1.iconfinder.com/data/icons/bnw/128x128/devices/nfs_mount.png;sketch=1;hachureGap=4;jiggle=2;curveFitting=1;fontFamily=Architects Daughter;fontSource=https%3A%2F%2Ffonts.googleapis.com%2Fcss%3Ffamily%3DArchitects%2BDaughter;fontSize=20;" parent="1" vertex="1">
          <mxGeometry x="1920" y="2311" width="128" height="128" as="geometry" />
        </mxCell>
        <mxCell id="g--a_x8X6rh97y5fOFsP-246" value="" style="shape=image;html=1;verticalAlign=top;verticalLabelPosition=bottom;labelBackgroundColor=#ffffff;imageAspect=0;aspect=fixed;image=https://cdn1.iconfinder.com/data/icons/bnw/128x128/devices/nfs_mount.png;sketch=1;hachureGap=4;jiggle=2;curveFitting=1;fontFamily=Architects Daughter;fontSource=https%3A%2F%2Ffonts.googleapis.com%2Fcss%3Ffamily%3DArchitects%2BDaughter;fontSize=20;" parent="1" vertex="1">
          <mxGeometry x="1723" y="2311" width="128" height="128" as="geometry" />
        </mxCell>
        <mxCell id="fSu5U68FAcuSb7UhGb1r-7" style="edgeStyle=orthogonalEdgeStyle;rounded=0;sketch=1;hachureGap=4;jiggle=2;curveFitting=1;orthogonalLoop=1;jettySize=auto;html=1;entryX=0.5;entryY=1;entryDx=0;entryDy=0;fontFamily=Architects Daughter;fontSource=https%3A%2F%2Ffonts.googleapis.com%2Fcss%3Ffamily%3DArchitects%2BDaughter;fontSize=16;exitX=0;exitY=0.5;exitDx=0;exitDy=0;" edge="1" parent="1" source="fSu5U68FAcuSb7UhGb1r-14" target="g--a_x8X6rh97y5fOFsP-201">
          <mxGeometry relative="1" as="geometry" />
        </mxCell>
        <mxCell id="fSu5U68FAcuSb7UhGb1r-1" value="" style="sketch=0;outlineConnect=0;fontColor=#232F3E;gradientColor=none;fillColor=#7AA116;strokeColor=none;dashed=0;verticalLabelPosition=bottom;verticalAlign=top;align=center;html=1;fontSize=12;fontStyle=0;aspect=fixed;pointerEvents=1;shape=mxgraph.aws4.iot_analytics_channel;hachureGap=4;jiggle=2;curveFitting=1;fontFamily=Architects Daughter;fontSource=https%3A%2F%2Ffonts.googleapis.com%2Fcss%3Ffamily%3DArchitects%2BDaughter;" vertex="1" parent="1">
          <mxGeometry x="634.1700000000001" y="2720" width="116.66" height="140" as="geometry" />
        </mxCell>
        <mxCell id="fSu5U68FAcuSb7UhGb1r-8" value="抽取(基于binlog日志)" style="text;html=1;strokeColor=none;fillColor=none;align=center;verticalAlign=middle;whiteSpace=wrap;rounded=0;fontSize=20;fontFamily=Architects Daughter;" vertex="1" parent="1">
          <mxGeometry x="710" y="2590" width="130" height="30" as="geometry" />
        </mxCell>
        <mxCell id="fSu5U68FAcuSb7UhGb1r-10" value="清洗、组装、推送" style="text;html=1;strokeColor=none;fillColor=none;align=center;verticalAlign=middle;whiteSpace=wrap;rounded=0;fontSize=20;fontFamily=Architects Daughter;" vertex="1" parent="1">
          <mxGeometry x="130" y="2740" width="250" height="30" as="geometry" />
        </mxCell>
        <mxCell id="fSu5U68FAcuSb7UhGb1r-11" value="清洗、组装、推送" style="text;html=1;strokeColor=none;fillColor=none;align=center;verticalAlign=middle;whiteSpace=wrap;rounded=0;fontSize=20;fontFamily=Architects Daughter;" vertex="1" parent="1">
          <mxGeometry x="845" y="2740" width="210" height="30" as="geometry" />
        </mxCell>
        <mxCell id="fSu5U68FAcuSb7UhGb1r-12" value="cannal数据同步组件" style="text;html=1;strokeColor=none;fillColor=none;align=center;verticalAlign=middle;whiteSpace=wrap;rounded=0;fontSize=20;fontFamily=Architects Daughter;" vertex="1" parent="1">
          <mxGeometry x="567.5" y="2870" width="250" height="30" as="geometry" />
        </mxCell>
        <mxCell id="fSu5U68FAcuSb7UhGb1r-15" style="edgeStyle=orthogonalEdgeStyle;rounded=0;sketch=1;hachureGap=4;jiggle=2;curveFitting=1;orthogonalLoop=1;jettySize=auto;html=1;entryX=0.5;entryY=1;entryDx=0;entryDy=0;fontFamily=Architects Daughter;fontSource=https%3A%2F%2Ffonts.googleapis.com%2Fcss%3Ffamily%3DArchitects%2BDaughter;fontSize=16;" edge="1" parent="1" source="fSu5U68FAcuSb7UhGb1r-14" target="g--a_x8X6rh97y5fOFsP-216">
          <mxGeometry relative="1" as="geometry" />
        </mxCell>
        <mxCell id="fSu5U68FAcuSb7UhGb1r-14" value="" style="rounded=1;whiteSpace=wrap;html=1;fillColor=none;strokeColor=#3333FF;dashed=1;shadow=1;sketch=1;hachureGap=4;jiggle=2;curveFitting=1;fontFamily=Architects Daughter;fontSource=https%3A%2F%2Ffonts.googleapis.com%2Fcss%3Ffamily%3DArchitects%2BDaughter;fontSize=20;" vertex="1" parent="1">
          <mxGeometry x="540" y="2680" width="290" height="250" as="geometry" />
        </mxCell>
        <mxCell id="fSu5U68FAcuSb7UhGb1r-20" value="内网" style="text;html=1;strokeColor=none;fillColor=none;align=center;verticalAlign=middle;whiteSpace=wrap;rounded=0;fontSize=20;fontFamily=Architects Daughter;" vertex="1" parent="1">
          <mxGeometry x="-340" y="350" width="60" height="30" as="geometry" />
        </mxCell>
        <mxCell id="fSu5U68FAcuSb7UhGb1r-24" style="rounded=0;sketch=1;hachureGap=4;jiggle=2;curveFitting=1;orthogonalLoop=1;jettySize=auto;html=1;exitX=0;exitY=0.75;exitDx=0;exitDy=0;entryX=1;entryY=0.75;entryDx=0;entryDy=0;fontFamily=Architects Daughter;fontSource=https%3A%2F%2Ffonts.googleapis.com%2Fcss%3Ffamily%3DArchitects%2BDaughter;fontSize=16;shape=link;strokeWidth=2;strokeColor=#6161ff;dashed=1;" edge="1" parent="1" source="fSu5U68FAcuSb7UhGb1r-19" target="fSu5U68FAcuSb7UhGb1r-19">
          <mxGeometry relative="1" as="geometry" />
        </mxCell>
        <mxCell id="fSu5U68FAcuSb7UhGb1r-25" value="&lt;font style=&quot;font-size: 36px;&quot;&gt;DEVOPS&lt;/font&gt;" style="text;html=1;strokeColor=none;fillColor=none;align=center;verticalAlign=middle;whiteSpace=wrap;rounded=0;fontSize=20;fontFamily=Architects Daughter;" vertex="1" parent="1">
          <mxGeometry x="-360" y="3060" width="170" height="90" as="geometry" />
        </mxCell>
        <mxCell id="fSu5U68FAcuSb7UhGb1r-55" style="rounded=0;sketch=1;hachureGap=4;jiggle=2;curveFitting=1;orthogonalLoop=1;jettySize=auto;html=1;fontFamily=Architects Daughter;fontSource=https%3A%2F%2Ffonts.googleapis.com%2Fcss%3Ffamily%3DArchitects%2BDaughter;fontSize=16;" edge="1" parent="1" source="fSu5U68FAcuSb7UhGb1r-26" target="fSu5U68FAcuSb7UhGb1r-27">
          <mxGeometry relative="1" as="geometry" />
        </mxCell>
        <mxCell id="fSu5U68FAcuSb7UhGb1r-26" value="" style="shape=image;html=1;verticalAlign=top;verticalLabelPosition=bottom;labelBackgroundColor=#ffffff;imageAspect=0;aspect=fixed;image=https://cdn4.iconfinder.com/data/icons/socialcones/508/Gitlab-128.png;sketch=1;hachureGap=4;jiggle=2;curveFitting=1;fontFamily=Architects Daughter;fontSource=https%3A%2F%2Ffonts.googleapis.com%2Fcss%3Ffamily%3DArchitects%2BDaughter;fontSize=20;" vertex="1" parent="1">
          <mxGeometry x="150" y="3365" width="220" height="220" as="geometry" />
        </mxCell>
        <mxCell id="fSu5U68FAcuSb7UhGb1r-57" style="edgeStyle=orthogonalEdgeStyle;rounded=0;sketch=1;hachureGap=4;jiggle=2;curveFitting=1;orthogonalLoop=1;jettySize=auto;html=1;fontFamily=Architects Daughter;fontSource=https%3A%2F%2Ffonts.googleapis.com%2Fcss%3Ffamily%3DArchitects%2BDaughter;fontSize=16;curved=1;entryX=0;entryY=0.25;entryDx=0;entryDy=0;" edge="1" parent="1" source="fSu5U68FAcuSb7UhGb1r-27" target="fSu5U68FAcuSb7UhGb1r-36">
          <mxGeometry relative="1" as="geometry">
            <mxPoint x="700" y="3120" as="targetPoint" />
          </mxGeometry>
        </mxCell>
        <mxCell id="fSu5U68FAcuSb7UhGb1r-58" style="edgeStyle=orthogonalEdgeStyle;rounded=0;sketch=1;hachureGap=4;jiggle=2;curveFitting=1;orthogonalLoop=1;jettySize=auto;html=1;entryX=0;entryY=0.5;entryDx=0;entryDy=0;fontFamily=Architects Daughter;fontSource=https%3A%2F%2Ffonts.googleapis.com%2Fcss%3Ffamily%3DArchitects%2BDaughter;fontSize=16;curved=1;" edge="1" parent="1" source="fSu5U68FAcuSb7UhGb1r-27" target="fSu5U68FAcuSb7UhGb1r-28">
          <mxGeometry relative="1" as="geometry" />
        </mxCell>
        <mxCell id="fSu5U68FAcuSb7UhGb1r-59" style="edgeStyle=orthogonalEdgeStyle;rounded=0;sketch=1;hachureGap=4;jiggle=2;curveFitting=1;orthogonalLoop=1;jettySize=auto;html=1;entryX=0;entryY=0.5;entryDx=0;entryDy=0;fontFamily=Architects Daughter;fontSource=https%3A%2F%2Ffonts.googleapis.com%2Fcss%3Ffamily%3DArchitects%2BDaughter;fontSize=16;curved=1;" edge="1" parent="1" source="fSu5U68FAcuSb7UhGb1r-27" target="fSu5U68FAcuSb7UhGb1r-30">
          <mxGeometry relative="1" as="geometry" />
        </mxCell>
        <mxCell id="fSu5U68FAcuSb7UhGb1r-62" style="edgeStyle=orthogonalEdgeStyle;rounded=0;sketch=1;hachureGap=4;jiggle=2;curveFitting=1;orthogonalLoop=1;jettySize=auto;html=1;fontFamily=Architects Daughter;fontSource=https%3A%2F%2Ffonts.googleapis.com%2Fcss%3Ffamily%3DArchitects%2BDaughter;fontSize=16;curved=1;" edge="1" parent="1" source="fSu5U68FAcuSb7UhGb1r-27" target="fSu5U68FAcuSb7UhGb1r-49">
          <mxGeometry relative="1" as="geometry">
            <Array as="points">
              <mxPoint x="930" y="3470" />
              <mxPoint x="930" y="3802" />
              <mxPoint x="1850" y="3802" />
            </Array>
          </mxGeometry>
        </mxCell>
        <mxCell id="fSu5U68FAcuSb7UhGb1r-27" value="" style="shape=image;verticalLabelPosition=bottom;labelBackgroundColor=default;verticalAlign=top;aspect=fixed;imageAspect=0;image=data:image/png,iVBORw0KGgoAAAANSUhEUgAAAJAAAAC2CAYAAAA2swSTAAAACXBIWXMAABYlAAAWJQFJUiTwAAAgAElEQVR4nO1deVhUVf//MuyOMDg4ESA6bsgmKJIauIxWr5KAZk8uoeaGSuXyqi/6ZoaWFVpq5oOZG4no+5JiCUJmvWAq5pLEomOaxRaLrIIMMAt8f3/Q3N/cmTvDnbl3mKHm8zzngblzzznfc+Zzzz3Ld7FCRAQLLDAQHFMLYEHvhoVAFjCChUAWMIKFQBYwgoVAFjCChUAWMIKFQBYwgoVAFjCChUAWMIKNqQUwV0gkEmhpaYFHjx4BAEBNTQ0AACAi8T8AAJ/PB1tbW+Izl8sFLpcLbm5uGt/9FWEh0J+4f/8+1NTUwLfffgs1NTVw69YtkEql0NzcDAAAT548AYAuAin/B+gijLW1NfHZ3t4e7OzswNnZGbhcLjg7O8O0adNAIBDA9OnTwd3dvWcbZmRY/R3Pwtra2qC0tBRKSkqgpKQEdu3aBcXFxT1Sd1BQEEybNg2mT58O3t7e0K9fP+jTp0+P1G0M/K0IVFJSAkePHoWCggK4efMmtLS0gEQiMZk8gYGB4OXlBUuXLgVfX1/w9fU1mSwGA//CkMvl2NraillZWejt7Y0AYNZp9erV+PjxY2xtbTV119HGX3IEkkqlkJOTA6mpqVBSUgKXL1+Gzs5ORmUKhULo378/+Pv7U9ZXVVUFnZ2dUFRUBI8fPza4Hjc3N/D19YXdu3dDcHAwE5F7BqZmMNvIz89HkUiEDg4OjEeEcePG4blz57C4uBibmpqwpaUFZTKZRpJKpdja2ooSiQQbGhqwrq4OL1++jHFxcRgYGGhQ3VwuFxctWmTq7uwWf4kRSCKRwK1btyApKQlOnz4NbW1tBpUjFAohODgYxo8fD4sXLwaBQMCKfJWVlXD9+nUQi8Vw9uxZqKurg/Lyclp57ezs4OOPP4bXX3+dtNozG5iawUxx7do1DA8PRxcXF0ajTVxcHD58+BBlMplR5a2srMQHDx7g8ePHMSoqipZszs7O+Mwzz2B2drZRZTMEvZJALS0teOPGDZw7d67WTnd0dEQfHx8cMmQIcjgcynucnJwwJCTEpD9MdnY27t+/H318fLTKqUzDhg3DGzdumExWKvQ6ApWVlWF0dDTy+XzKThYKhfjWW2/hiRMnsLq6Gn/77Td85plnNO4LCgrCU6dOoUKhMHWTEBGxuroa//Of/2BISEi3JEpKSjK1uAR6DYFaW1sxPj5e62jD5/Nx06ZN2NzcTOSRyWR4/vx5dHR0JO59+umn8fPPPzdhS7pHcnIyuri4oLW1tdaRMy0tDeVyualFNX8C1dbW4pEjR1AkEmkM8f3798dly5ZhTk4OdnR0kPJdvnwZFyxYQMyNuFwuvvTSS/jTTz+ZqCX6oampCbdv344DBw7UOhrFxsZiY2OjSeU0awJVVlZiaGgo2tjYaHTeK6+8gg8ePKB8Cu/fv4+DBg0i3X/8+HFsb283QSsMh0KhwOrqagwLC6MkkJWVFcbGxpp0JDJLAjU2NuKePXtQKBRqdFpERARevXpVZz7lvdbW1jh//nzMz8/v4RawC7FYjEuWLEEej0dJpPXr1+Pjx49NIpvZESg/Px8jIyPRzs6O1Enu7u64d+9erK+v15pXPd/hw4exqampB6U3Lo4cOYJcLpeSRMuWLcOWlpYel8lsCKRQKPDo0aNob2+vMUEWiURYWVmpNW9tbS1OnjyZyOPv7292y122sHPnTq0k2r59e4/LYzYE2rp1q0bH8Pl8TExM1JlPKpXi0qVLiQm2SCTCX3/9tYekNg0OHz5M+Trj8/k9vsQ3OYEaGhpQJBKROoLD4eCkSZNozV3WrFlD5Bs7dixWVFT0gNSmx65duyhHIXd3d7x+/XqPyWFyAr3zzjsanRAZGYk1NTXd5hWLxUSe0NBQvHv3bg9IbB6oqanBefPmUZLI19cXS0tLe0QOkxIoOTlZY4m+evVqWvowlZWVOG7cOAQADAsLw7q6uh6Q2LzQ1NSkdYnv6enZIyQyGYFSUlJIxxHW1ta4evVqlEqltPKnpaUhj8fDsWPHolgsNrK05guxWIxDhgzRIJC1tTVu3brV6Ec1JiNQcHAwqcGTJ0/Wa8ktEAhQKBT+beY8unD69GnKUcjZ2RlzcnKMWrdJCLRu3TpSQz08PGjnlUgkOH/+fLSzs8O0tDQjStm7sHv3bo29M4CuQ+OGhgaj1dvjBBKLxejk5ERaeqanp9PKe//+fVyxYgX26dMHV69ebdSO6W1obGzEyMhIrWdmxtKz7nGNxGPHjsHKlStBoVAAAMCkSZPghx9+AIVCAXK5HC5dugSFhYVw/vx5uHr1Knh7e8NTTz0FAADXr18HhUIB9vb20N7e3pNimx1kMhm0t7fD77//DuXl5SAQCMDPzw9cXV2JvlVCIBDApUuXwM/Pj31BjEJLLZDL5bh48WLiyRg9ejSeOnUKz5w5g4sXL6Y8cadKBw4c6EmxzQ7p6ek4d+5cjZN6d3d3dHd3p+yzr776yiiy9OgI1NjYCG5ubiCXywHg/604pVIpyGQy2uUcOnQIYmJijCUmKBQKOH36NJSVlQFAlzHg9OnTjVafPjhx4gTExMSAVCrVK19oaCjk5uayL5BRaKkGiUSCmZmZtG2zHBwc0MfHB59//nmcPXs27tixAyMjI4nRacOGDUaRMy0tDadNm0YpE5/Px5SUFKPUSxc//PCDVk1MOik1NZV1mXqEQPPmzcM+ffp020Dlifvt27extLQUm5qaCCX3pKQktLW1RYAu5TA2UV9fj3PnztV6SKlKIlOqhqSkpBhMHgDAqVOnsi6TUQnU1NSEc+bM0dkoOzs7DAgIwLVr1+o8ca+srCQdIN6+fZsVGR88eIBTpkyh/SNERkayUq8h2LZtGw4dOhTfeecdkmZlfn4+JiQk4JQpU1AgEGiVfejQofj777+zKpNRCbR582Zi1KBKQqEQd+/eTXs57urqSuRlYw/o8uXLGpqL6onH45F0qo31+qSDX375pVsC/Pjjj7h27VrKttja2uK+fftYlcloBPr++++1/ig2NjYYFRVFUoCnA1U7qtjYWEby1dfXa5wjcTgc5PF4OGfOHLxy5QpJVbS5uRmvXLnCqM6eRHx8vIZuFQDgv/71L1brMQqBiouLMSAggJI8Li4umJiYSOu0XR1sEUgsFuOECRM05l8bNmzA6upqg8s1J3R0dGBSUpIGiXx9fVmtxygESk5Opnx12djY4IEDB7Czs9Ogctki0NKlS0ly+fn5oVgsNgszGTbR0dGBWVlZpLZaW1uzqi/Euo/EtrY2OHbsGLHXo4qdO3dCbGwsWFlZMa7HUM8Vv/76K3z33XfEZz8/P/jiiy/A19cXbGz+Wg7bOBwOhIeHw6ZNmwhXex0dHVBYWMheHayV9CekUink5eVpXBeJRLB+/Xq2q9MbSUlJhGMDd3d3OHPmDDzzzDMmlsq4WLVqFQwcOJD4nJGRwVrZrBMoKyuL8CuoxODBg+Hw4cOMy1bdSTV0BBKLxQDQ9XRGR0fD8OHDGctl7nB2dob+/fsTny9dugQlJSXsFM7ay/BPvPTSSxpzn02bNrFStuoyXpd5jy4o8/N4vL/MhJkOUlNTibZzuVy8efMmK+WyPgJ99dVXGteovHrpi99//52YV40dOxb4fL7eZRQUFABAl8+d7du3g5ubG2O5egvmzJlDzPGkUincvXuXlXJZJVBdXR3l9YULFzIuu6ysjCBQYGCgQWUEBQXB6NGjYcaMGbB27VrGMvU2KPuts7MTmpqaWCmT1WUH1WnvggULWCm7vLyc0HMxlEAAAFeuXGHsL7G3IjAwEPLy8qCzsxMKCwtBoVAwXnmyOgI1NjZqXHNwcGClbOUrzMHBAcLCwgwuh8vlgpOTEysyAQBs3ryZtbLYQGpqKly+fJnyu7FjxxL/d3Z2ArKgycMqgSorKzWujRgxgnG5CoWCKFvpLdVccOnSJbh//76pxSDQ0NCglUA+Pj7E/5WVldDR0cG4PlYJROXcUqmOygRyuRwePHgAAAA8Ho+1UY0t7Nixg3LjVB9IpVJWRgQAgKNHj5LCMSjh5OREbCg+ePBALyU+bWCVQFR7C2yMQKoYNmwYK6RkC0KhEL7//ntihWcIOjo6IDExEd59913G8vj6+kJjYyN88MEHGt9xuVxi9VpbW2t+I5CxoFAoCHIGBASYVhg1xMXFQXV1NXz55ZcGl4GIUFRUBNu2bWNERICu3XUulwuJiYnw8OFDrfdJJBJWFhO9gkAdHR2E93dvb28TS0OGu7s7uLu7wxdffEHoUOsLDocDPB4PAADOnz/PSB6hUAhjx44FiUQCJ0+eJJHE3t4euFwuo/LVYXQCsXFw19nZadYEiouLg9raWvjXv/5lUBkcDgf69esHAF1bIVTzF7qwt7eH4OBg6OzshJMnT5KCydjZ2UHfvn2Jzzdu3DC4HiVYJZCzs7PGNXUbJaYwR2/tzz33HLi4uEBGRgZkZ2cbVIa/vz/Y2dnBtWvX4Pbt24zkWbZsGQB0aR4kJiZqvY+N34ZVAnl6erJZHCWEQqHR69AXI0aMgKlTp0JbWxts3rzZoBBSI0eOBHt7e2hqaoKdO3cyksfDwwOCgoIAAOCDDz4g5o+qk2i2wCqBRo8erXFNW2c+efKElVWAOcDOzg7efPNNAAC4desWxMbGUu6J6cKIESOIH/fChQvw7bffMpLpvffeA4Cuft6/fz/IZDKwtrYmheBk8qpUgtWjjNDQUI1ryk22yspKyM3NhWvXrkFdXR08evSIiCkaEhICQ4cOhYiICMpyra2tQSAQQG1tLZSUlJhlYLYpU6bA+vXrYc+ePXDixAlobGyE48eP6/XEb9myBVasWAEAAPHx8eDr60vS49GFe/fuEX8rKyshLS2N+O7YsWMgEolg8uTJpDyFhYUQHR1NWz5KsHKmrwJ1XeOgoCA8ePCgTnMTZQoLC8M//vhDw0dQc3Mz4fLXnH0BNTc3k3z17N27V+8ygoKCaCnAKxQKnDBhgk5H5Mqk9L3U1NSEL7zwAnE9Li6OSXMR0Qg60eoEMiQpG6tES0sLjho1ijVzHkOQnp6OiYmJmJOTgz///LOGZ3xExDt37pB8WwcHB+tdz+HDhwlFeIFAoNUndk1NDe3+fPPNN7Gpqal3EIjKq7y+SfnEKCGTyXDhwoUIALhjxw62RaYFe3t7tLa2RkdHR+zbty+6urqij48PRkVFYVRUFPr4+JDc1gAALl68WO96KioqcMSIEUQZbm5uWl3VKV38dfcwKkd0YxCItTmQXC6HPXv26Fwacjgc8Pf3Bzc3N0KZq7W1FR4+fAhFRUXEfR0dHbB//36wtbWF999/HxwcHCAwMBA4HA78/PPPIJfLezQee0lJCeHMQHne19LSAvX19fDLL79ozWfIMY6HhwfExMTAxo0bAQDg0aNHsHXrVjhy5IhGm3NycmDZsmWQk5MD1dXVANAVMtPLywsCAgIgLi6ONF90dnYmKdGxElCPMQX/REFBgVZX/ABd/ptv3LiBf/zxB+n1JJVKsby8HBcvXqzhmqR///7EEF5QUIB9+/ZFoVCIDx8+ZEts2qAbHE6ZnnnmGYNVZltaWkj12dvb4yeffEJ5b1NTE967dw+vX7+O169fR7FYjFVVVVrLXrBgAVHuuXPnDJJPFawRaPny5ZQdKRAIcOfOnbTKSEtL0zCEU7X/GjRoEPL5fCwqKmJLbNp49OgRvvrqq+jh4UFp8QnQFfzE09MTly9fztgG/eHDhzh48GBS+d988w1jp5lsE4i1V9ilS5c0rnl5ecHnn38O4eHhtMqYNm0azJkzB06cOEFcO3XqFKxbtw68vb0hKCgI0tPT4e7duz1+qPrUU0/ByZMnIT8/H0pKSqClpYVYOivh7+8PAQEBEBAQABwOsy22gQMHwooVK+Df//43cW3dunXw7bffwqBBgxiVzSoYUxC7Vg5A8USq+z6USCT4888/45YtWzAuLg7v3LmDra2tGk+V6lIWAAib9BdffNHgyWlvxfTp00le24KCggwOW6U+iTabV9i7776rQZ7Q0FDSPVT26PDn3OjTTz8l3fvJJ5+Q7vnwww/x0qVL2LdvX4OXx70Vra2tGqEgoqOjDZpfqRMoLy+PsXysEIjKW3p5eTnxvapXeapkZ2dHcjty8eJF0pLY1taW5GLFxsaGDbF7DS5cuEBqP4fDMSgyjzqB2PDuz5hAbW1tGk7D58yZQ9pNfvDgAYaGhuILL7yAzz77LKUjTTs7Ozx69Ch2dHTg48ePMTAwUOcqx1DDwt6KjIwMjVXue++9p1eMsPLycqJfuVwuK26SGR+mNjU1kXShbWxs4LnnngM7OzviWmZmJrz99tuQlpYGkZGRlLq/MpkM9u3bB62trcDj8WDUqFFa64yLiwN7e3umovcqREREwO7du0kKYe+9957Bh64CgYAd1RimDKyurkZfX1/S6+bUqVOU98pkMpw/fz4CAA4fPhy/+eYbfPToEU6fPp3If/DgQUREPHnyJHp6eqKnpycOGDAAfXx8cPny5fjxxx+bJDKfOaC+vh4jIiJIo5C7uzttM+XS0lLitxKJRKw4H2edQI6OjlrjMzx58gT9/f0RgHzQWFpaSnhwFQgEiNjVWQUFBVhQUIBFRUVYXV1Nef70d0N9fb3GpFogEODXX3/dbV6xWIxubm6sEojxK4zD4dD294OIhH7Q0KFDiesDBw6ETz75BDgcDtTW1sK9e/eAz+dDYGAgBAYGQkBAALi5uTHeW/krgM/nw8mTJ2HcuHHEtdraWpg1axZ88sknOvM2NzfDo0ePAKBLMY8Nf0iMfxGBQECy9FTVX9aFyMhI0meRSASTJk1iKs7fAh4eHpCUlKShK7Rr1y6oqqrSmk/1Ox6Px8ociJVHWtVWXdWCQh84OjpCdHT0X85LmLHg6+sLH330EelaVVWVTgJduHCB+L9fv36sjOisEEjV0E+hUMDdu3cpbY6srKyAy+VqtW2fOXMmzJgxwyw1Ds0R4eHhGjriujQglSrEdnZ2rLjcAWCJQNOmTSN9vnjxIrS2tmrcZ29vr9OzhkAgIJ2DWaAfoqKidBodKNWLra2tWfMvwAqBJk6cSNqfqK2tpXyN2drawsiRI3VOutn0nPFXR1lZGcmcXNeoIpFI4MqVKwDQ9TuwZXLO2rJGVaCqqiqtdt5Tp06FPn36sFVtrwJb9uhKJCcnE//zeDyYN2+e1ntVNxxtbGzA3d2dFRlYI9CqVatIk7LDhw9TeusYN24czJgxg61qew0QEfbt2weZmZmMylEoFFBRUQErV66EXbt2EdeHDh0Krq6uWvPV1NQQ/4tEIkYykMB4J+lPqG5SKdPy5csNVj34q0FpWcLE4eiNGzdwzZo1GpqboaGhmJWVpbOvZ82aRdyfkJBgsAzqYI1AjY2NGlFvPDw88JdffmGril6N+vp6BOgyXdIXpaWlRDgqKysrklZCXFwcPn78WGf+mpoa9PPzI/KxGcmZVauM5ORkSn2fv9vJORWUBAIA/Pbbb7u9v7i4GD/99FPKIH19+vTBmJgYvH//Pq26b968SbwdeDwe06aQwCqBWltbNbQJAQDfeecdNqvplWhqaiJePSKRCC9fvqxxT35+PqampuLUqVNx6NChlPFGoqKiMC8vDyUSic76VAPjpaamorW1NQIAhoeHs9ou1u3CcnJyNJTOuVwuHjlyhHYZ5eXlmJycjIcOHWI9QJqpoB5wWNkvY8aMoXzolElVUT87O7vbeoqKinDu3Ll4/Phx4trs2bNJOkRsgnUCtbW1YXh4uEZH8Hg8XL58ebdhnvbs2UOEinJ2dsaLFy+yLaJJ0NHRgUePHkU7OzudinLK5OjoiAsXLsT4+HgsKCjoVhOhrKwMV69ejcOGDcOQkBDSd15eXkSZ6nrqTGGUcE+lpaUaKzJlCgsLw7i4OGxtbcXW1laUy+Uol8uxvr4eN23aRLJs9fLywjt37hhDRJMhOjoanZycSMnZ2Rn5fD7y+XxcunQpfvPNN7TK6uzsxObmZoyPjyf6bMCAASSzp5ycHOI7T09PLCgoYLU9Rjm5HDhwIJw5cwZWrFihYfqSm5sLubm5cPPmTQD4f38/2dnZGi7iZsyYwdqZjbGQlZUF/fr1g8DAQFru41JSUjSckXI4HNpeOAC6PLrm5ORAbm6uRnkvvPAC6Thj7969xP/qlqmsgFU6quH69esaexZ004IFC3rFHlJubi726dMH+/XrhwkJCVqdIbCF/Px8FIlE6ODg0G2fXb16lRQtOyYmhnV5rBBZck6sBTk5ORATEwO//fYb7Tyvvvoq7N+/n3VvWsbC6tWr4ciRI9De3k5cGz9+PHh4eEBwcDAIhULgcDiELXp3bor5fD4MGDAAmpqa4Ny5c/DgwQM4f/481NXVQUVFBWWep59+GnJyckjOxFNTU2HRokWEP+gzZ87Ayy+/zLS5ZLBOSQr8/vvvmJCQQHv06W37Rq2trbh7926dbbKyskJnZ2d0dnYmdL21paioKETs2t2n22dZWVkkA8329naMjIwk3WMMXfIeIZAS7e3tuGTJEhwwYADJzkk99QY8efJE49r+/fvRx8eH0mxJn+Tj44OI3RPIysoKhwwZgj/88IOGLHfu3CHdu3z5cqP0Q4//Wi0tLVhUVITp6em4bNkykkMmZaqoqOhpsWhDKpXijh078B//+AelNUR1dTVGR0djSEgIIxIhdk+g+fPn42+//UYpZ1xcHOnelJQUo/SHyR/3lStXanSMKbxv0EVzczMOGzYMAQCnTJmCjY2NWu9NTk7Gfv36IZfLpZz06ksgDoeDXC4XPT098fPPP9dab1FRESnfyJEjSZbCbMLkCshKd7SqyM3NZcX7RllZmV7LYzrgcrmwZcsWWLVqFdy8eRN+/PFHrd5HFi5cCHPmzIHCwkJ4/PgxZGZmwuPHj6GkpASqqqqIADK6MGTIEBg5ciS4uLiAv78/TJs2DQQCgU59nvT0dNJnNzc3Sh/erMAotNQDV69e1Xj6Fi1axErZs2fP1uoejglU47FzuVxMTk6mnU8mk2Frays2NzdjXV0dkfLy8vDcuXN47do1wmZdoVBgU1MTtre3o0wmo1VHZWUljh49mtSf2gw92YDJCUSlRxQSEsJKQNzMzEzcunUrY6dM2nDo0CHs06cP8vl8o80x9EVKSgqpL/38/Ixan8kJVFtbq+Hdw83NjRV3viUlJejs7Ezy/MEmJBIJzps3DwEA+Xw+Tpo0CW/fvm2Uuujg66+/1nCnbOz5pMkJhIiUeygHDhxgXO6TJ09w5MiRCABG2yG+d++exo+2cOFCzMvLw9LS0h6z45dIJBqvrsjISKPv5psFgX788UcNAs2ZM4dxuR0dHZiQkIDW1tYYERFhtA3KrKws4sRbmRwcHNDX1xdffPFFjIuLw7S0NExLS8OioiIUi8Xd2qWLxWIUi8W0lcYyMzNJxxZ2dnb43//+l43m6YRZEAgR8fnnn9cg0bVr1xiXW1paiq6urggA+NFHH6FcLmdBWk3s3r2bFR/Z6snDw6Pbutva2jS8dnz88cdGaac6zIZABQUF6OLiQuqEWbNmsVK26jHK4cOHWSmTCgcPHqTcGDU09e/fn/APqQvqLoh9fHyMsvqkgtkQSCaTYXR0tMYKojsFNDqQy+XEEyoQCFhVKldFZ2cnZmVl6TymoZvc3d1pzdvUT9wBAI8ePWqU9lHBbAiE2PXeVw1W4ujoyNryuKioCAcMGEBsE9y9e5eVcrVh7969GB4ejiNHjsRBgwZpJQqPx0M3NzccMmQITp06FWNjY/Hq1atYXFzcbR1Pnjwh+WYCAHR1daXUtzYWjK7OoS/OnDkDr7zyCvE5LCwMrl69ykrZZ8+eJdQZfHx8IDs7mzULTSpIJBJobGyE9vZ2qK+vp7zH0dERbG1twd7eHlxdXYnYqXSwb98+WLduHemap6cnZGVl6fRBwCp6jKp6QH1fqLKykrWy4+PjiSF/xowZWFtby1rZPQWFQoGfffYZ5YjG5XJ7dFPTLAm0ZcsWUqdMmDCBtbIlEglJh1gkErFWdk/h3r17OjU9vby8aC//mcIsCaS+He/k5IS//vorq3WoeoCPiYnpNSNRS0uLTjMgZerbt2+PBOczSwKpj0AcDgfXrVtH+0CRDtrb2/G1114jSBQREWHSYwg6+O233/QK6Ddq1ChaVrBMYHYE2rdvH6XtlK2tLWZlZbFaV3t7O/L5fKKO4cOHm60Z0fXr1zEkJIRkG08nOTo6YkZGhtHkMhsC3bp1C2fPnk2Y4FIlb2/vbh0J6Iv79+8Thozw5xI/OzvbbHxRV1RU4AcffED5UCkjO0qlUtLigGpOxPbDp4TJCdTS0oK7d++mbf6TmJjIugzl5eX48ssvE3W4uLjg0qVLTWpWpOyXESNGaI1PphpbVn1xoJ70idumD0xGoOrqakxJSUEfHx+9huRhw4bhjRs3jCLTvHnzSE/xwoULsaioSCOKtDEhk8mwsLAQZ86cqbUPXF1d8Z///Cdlfl0jEQDgkiVLsLm5mTV5TUKgjIwMDAkJofQ+QZdExjiOoHqKXVxccPbs2UY7/lBFRkYGvvzyyzpDhwqFQrx69Sq2tbXRboN6ioiIYG2F1mMEUigUlPbv6snGxgZ5PB6uXbsWKyoqtIaJcnd3x9zcXK0dyQTbtm1DJycnjQlrREQENjQ0YGtrK3Z2djKuRy6Xo0QiwdTUVFrx3wUCAR48eBDj4uIwLi4OGxoatGoXZGVl6eznsLAw8wj3RAe1tbW4adMmnZ3E4XBw8uTJeOjQIdIBqlgspoxHpuzQ8PBwzMnJYW2JX1tbi6WlpVhcXIwrVqzQOGuysbFBkUiEb7/9tsFPcXFxMZ49exYXL15MK3S3rodt27ZtlG2XyWQYHx+vc5QPCwtjPBIZnUDJycno4uKi09jO29sbMzMztSpZ1Q52szEAAAszSURBVNXVaSWRlZUVOjo6Ynh4uMHL1a+++gqjo6PR1dUVXVxc0NnZGV1dXdHZ2Zm0QlNPTk5O6OrqigkJCXj27Fmt5d+/fx+///57jIqKQjc3N3R2dtY6MdY32draYnx8PGW9MpmMUP7XloYMGcJo19ooBGppacGcnBxctGiRVtUGBwcHDA0NxcTERFpLc7FYTOtpFQqFOHv2bPzwww/x1KlTeO3aNSwoKMDq6mqNJ1VpBMjGD6mefH19WVHroJvKysq09l1ycnK38yq6IaPUwTqB2tvbcenSpRrKYerp448/1vv4oLKyUi+FLSsrKxQIBOjp6Ym+vr4YEhKC48aNw7lz52JsbCxOnTqVsRlyT6bg4GAMDg7GESNGaHy3e/durf0mk8mwoKCAMp8yDR482KDVLWsEqqurw7Nnz+o8p+HxeDh9+nRGm3QZGRmUT3bfvn3xu+++wxkzZqCnpydph5luUnX6ZEwi8Pl8HD58OE6ZMgVXrVqFt27dwpSUFORyuRr3enl54cyZMzE3N5fUD8eOHSPdFxoa2u0DqR7cTz2JRCK9l/is6AOVlJTAggUL4Pbt2yQXJ6oICQmBXbt2wdixY2k5YtKG9vZ2OHz4MKxZs4Z0XSAQQH5+Pnh4eEBhYSE0NTVBaWkp1NXVQW1tLTQ3N0NFRQW0t7dDSUmJhuMrkUgEb731FgAAICKIxWLIzc2FkpIS+Omnn7qVy8PDA5YtWwYdHR2Qnp4ODQ0NUFlZSQSO8ff3B29vb/D29oYhQ4bA4MGDYcCAAVBZWQmHDh2CgwcPErG8ALpcvGzcuBGioqK0OtnasGED7NmzBwC6rE9zcnK6DVRTVlYGb7zxBpw/f57y+82bN8OHH37YbXsJ6Pf8kyGXy/Hs2bNan1ilLffGjRuZVEOJtWvXEmHAlWnLli20RzfVQ8lRo0bpdOiQnJxM1KfLxt3BwQHT09O79aCqRFVVlUb0QWtra5w8eTLJy6o21NfXk17B6qOUNsjlcly1ahXluZqTkxMtbUglDCZQfn4+xsTE6ByqlyxZwrpPPlVQLfGDg4NpnaqrbinQ9VwqFovxwoULOHPmzG6Xx5999hlxzECFzMxMjWjXXl5euH37dp35VKEeU37r1q208iF2OYZftWqVaQi0bds2jadfPaWkpPTIEYBEIsFz586R5kVcLlenff39+/dJsqalpelVZ3t7O2UAXPWRpF+/figUCnHjxo2YkJBApI0bN2oYI4aFhWF1dbVeZtjqroPHjh2rVzvkcnnPEai+vh7T0tJw2rRpOokzZswYSodHxkZGRgbGxMRoGNfNnj0bjx07hgUFBYSLk7S0NJLMf/zxh8H1Zmdn40svvdTtqlNb4vF4uGvXLoOtTz766CPiNRYcHKx3fnXf1TweTy9ZaBEoNTUVx40bR7lKUH3q169fb1LnUBKJBPPy8jTspAC6XNx6e3vj1KlTNfaTmEIqleKnn35KS1NQPTk6OtKa72hDUlIS8Trlcrl651dX3psyZYpe+XX2XnNzM65Zs0ZnB9ja2uLQoUNphZ3uSWRnZ2NISEi3S/K+ffuyVmd7eztu374dR44ciZ6enoQOj4eHB7755puYkZGBP/30E65fv570yj19+rTBdV67do006uoLVS/2APpH8tFao1QqxdWrV+tU8ALoUnkw13AECoUCL168iHPnztUqvyHRc7pDTU0NFhQUEI4d1HWY2tracP369YQMAwYMwAULFuCCBQvw9ddfx5SUFNrzkOLiYnR2djaYQOPHjyf1h74amVprVI0uo23o1XYGY464e/cu+vv7a5xBsU0guVyOzc3NeOTIEUJJ7sSJE5T3Kk/Lrays0MnJCcPDw/HKlSu0zJmVYEog1b4ICAjQO79WF3fl5eXavgJfX184cOBAr4rz7ufnB3fu3IH09HQ4efIkfPnll6yVrfQc/+OPP0JZWRnk5ubCr7/+SnxfV1dHmS8wMBDy8vLAwcEB0tPT2Y0kSAO5ubmkz1FRUXqXoTXkpXrYASVmzJgBN27cAJFIxErc8Z5GVFQUKTL0jRs3GJcplUrh4cOH0NLSAtnZ2STyAGj+UEoUFhYCQFcMUzZ8Oeprjapu8WtQuHVtQxOVzx5fX19WXM+ZA1R3otlGRkYG7t27F4cPH070mzo2bdpk8N6LKlRfYfr6gn722WcJGYRCoUFqHVqHED8/Pw27cYlEAg0NDfqz1AyxYMEC4n/14CdMERERAevWrYM33niDKF856hUUFMDBgwchMTGRuL+jowOqqqoMqquqqgoUCoVB+cRiMfG5f//+MHjwYL3L0UogDoejEZxe+X7/K8Db25v431gPhfLQuK2tDRYtWgRWVlYwatQoiI2NhZaWFuI+KysrqKmpgXv37kFNTY1eocHr6uqI+ydOnEg7X2FhIUilUuLzypUrwdbWlnZ+JbROoh0cHGDMmDFQVFREun769GlYvny53hWZG4KDg0EgEEBtbS3k5uZCcHAw63XQHdkkEgnMmjULBAIBDB48GAYPHgxPPfUUiEQi8PX1hf79+xOBWlQhk8ng5MmTIJVKwcvLC5599lnashUVFRFBWAAYhALX9X5LSUmhPDT87rvv9H5XmhtUz5Hmz5/PipK8atkJCQnEJqadnR3a2NigjY0NOjk54aZNm/DKlStYUVGBCQkJtL3YCwQCnDBhAk6fPh3j4uJIm7xjxoyhfQogk8lw4cKFRF4mcTR0Ekh9j0GZAgMDdbr47w3o6OjA+Ph45HA4OHLkSEbnYaooLi4mhW9QuhlOSkrCpKQkfPDggUaeixcv4muvvWawmRMA4Nq1a2nLqH6Kz8Qjrk4CdXR0UMY/ZbJqMCcoz5HY8kutjBerqmezb98+WifsSgV4bSf848aNw7CwMK3GBaNHj6btR6mhoYEgq5+fHyN/it2uYdVVHwC6VBV27tzZbSBYc0dNTQ1xir5hwwaDy5HJZPi///1PI8a7UCg02C2N0mvtsGHDUCwWk0jY2tqK3333Hc6dO5fk5X/JkiW0XBmrRvKZOHEiI/fHtDZBqBTZAwMDKWNm9TZMmTIFAQw7yVbi3Xff1Wr1MGXKFIN+oIkTJyJAl7Nwbejo6MCUlBTS8Qwdf9iqfgi2bNmit2yqoEWgHTt2UHZOSUkJo8rNAarBXi5cuKBXXnWnDBwOB6dOnUocoirTrl27KPMfOHAA+Xw+rlmzRsORg1JbUReBlDh+/Dhxut+vXz+dZti3b98myZaZmalXm9VBK9xTUFAQODo6QltbG+n64sWL4YUXXqBThNmipqaG+D8hIQHGjx/fraPL2tpaOH78OBw/fhzu3LlDXLexsYGAgACwsrIibX+8//77IJfLNcpJSkqChoYG+Oyzz6CtrY0UbVm5BVBYWAgffPBBt+0QCoVw79494HA4kJmZCdeuXaO87/r166TPYWFh3ZatE3RYVlNTg4GBgQavEHpLGjFihNalsFQqxebmZtp27L0hvfXWW4xGH0Q9VFpjY2NN3mBjJ3t7ew1P9ko79pdffplVL/TmkPLy8nqOQLm5uSZvcE8kR0dH3LFjh1Hs2M0phYWF0TY/0gW9DAvffvtt1g8eLTANfHx8IC4uDuzs7BiVY3ae6i3oXeh9GmEWmBUsBLKAESwEsoARLASygBEsBLKAESwEsoARLASygBEsBLKAESwEsoARLASygBEsBLKAESwEsoARLASygBEsBLKAESwEsoARLASygBEsBLKAESwEsoARLASygBEsBLKAESwEsoARLASygBEsBLKAESwEsoARLASygBEsBLKAESwEsoARLASygBEsBLKAESwEsoAR/g+JH7TEJIasOQAAAABJRU5ErkJggg==;" vertex="1" parent="1">
          <mxGeometry x="700" y="3355" width="181.98" height="230" as="geometry" />
        </mxCell>
        <mxCell id="fSu5U68FAcuSb7UhGb1r-28" value="" style="shape=image;verticalLabelPosition=bottom;labelBackgroundColor=default;verticalAlign=top;aspect=fixed;imageAspect=0;image=data:image/png,iVBORw0KGgoAAAANSUhEUgAAAEQAAABWCAYAAAB2DTAiAAAACXBIWXMAABYlAAAWJQFJUiTwAAAJjUlEQVR4nO2ce0iT3x/HP7N5zX1Lp1biLc3K0LLCotQukyQosnt/SBmRkZZIFHQPSgwzkiT/KJQSQwqhMrrZbRYIhklaOR0lSlqpqFvq0pyz9+8P2WHP4zY3c6X77Q0HnuM+n885ez3nOddnCgCAbGKy+9cVGG+yAeHJBoQnGxCebEB4sgHhyQaEJxsQnmxAeLIB4ckGhCcbEJ5sQHiyAeHJBoSnCQOkt7eXlEqlxcuxKBCVSkVqtXpMYlVWVlJwcDAVFBSQSqUak5h6BQvqypUrOHjwIO7du4fv37//UazY2FgQEYRCIRISEvDx48cxqiVXFgWyfPlyEBGICF5eXsjPz4darcbg4KDZsb5+/Yrw8HAIBAIWs6ioCL9//x7TOlsMSGdnJ6u4bnJycsLmzZtx5coVNDc3mxWztbUVFy9exH///QcigkgkwrFjx9DW1jZm9bYYkP7+ftTW1iIlJQVCoXAYGIFAAB8fH2RmZpoVd3BwELdv34aTkxOLFRERAblcPib1JpVKhbdv36K+vp4lhUIBhUKBrq6uMSkEAIqLiyGRSODu7g4HBwcOnJkzZ6KwsNCsFlNTU4MdO3bA0dERRITIyEg0NDT8cT0FlZWVWLt2LYnFYtbRenh4EBGRUCik0NBQEovFtHLlSvLy8qLQ0NBRd+BdXV1UU1NDdXV1lJWVRXV1dZzPly1bRidPnqR169aZFK+7u5sKCwspOTmZiIjCwsLo8uXLJJFIRl1HevPmjd5n3VDy9PTEsmXL8PjxY7S2tqK9vR0ajcbsOzEwMIBLly5hxowZwx6p1atX4927dyZ3mPn5+ayl+Pr6/lFLMRuIbvLw8EBgYCCSkpJw9erVUXVuzc3NyMrKQnh4OCe2n58fcnJyTIrZ39+P7Oxs5uvj4wOpVDoaHqCmpiYcO3YM0dHRnCQSicyCM2nSJLi6uiI6OhpVVVVmVeL379/o7e1Fbm4uvLy8ODGXLFmCb9++jRhD29lqfX19fUfV0RodZWpra1FbW4v09HSkp6dj9+7diIiIwLRp04zCcXZ2RkxMDM6cOYP379+bNe+oqKjAqlWrOPECAgKQnZ2Nvr4+o74ajQZ3796Fv78/83v8+LHJZQOjGHZbWlogk8nw8uVLbNu2DfPnzzcIRju0JiYmorGx0eQyFAoFTp8+jUmTJnEgHz582CR/uVyOgIAANoJ9/vzZ5LL/eB4yMDCAyspKpKSkwNfXl/MldJO7uzvS0tLQ0NAAtVptUuz8/PxhMVeuXImOjo4RfcvKyiAWi1kn3dLSYlKZYzoxk8lkuHnzJhITE9lskp+CgoJw8eJFs2ImJiYyfzs7O2zatAkfPnww6tfb24vU1FQOSFNksZlqXV0dJBKJ3lkqESE2NhZyudzkITspKQl2dnacGO/fvx/Rb//+/RAIBBAKhcjLyxvR3qKLu8HBQTx9+hTx8fEIDg7W+xjt3bsXnz59GjHWr1+/cP78eY5/cHAw7t+/b9Svra0NS5YsYa3zxYsXRu0tCkSrvr4+yGQyxMXF6W0t8+bNM6njU6vVuHHjBnx8fJivSCTCrVu3jPoVFBQw+ylTphgt668A0ZVUKoVEItEL5tq1a+ju7h4xxvPnz+Ht7c38xGIxSkpKjPrk5ubC3d0dRIQDBw4YHML/OhBgaOg+e/bssPmMk5MT4uPjTYrx9u1bzn7LrFmzjNprNBqkpKSwVlVdXa3X7p8A0aq8vJzNF3STq6srqqqqRlzL6A6tRIQ1a9YYnbyVl5djxowZICLs2LED/f39w2z+KRBgaCds3759bHGmTaGhoXjw4MGI/hkZGcxHKBTixIkTRuc5uvb6OuR/DgQYas45OTnDWoq9vT2Ki4uN+g4ODiIhIYGz/jl16pRBe7VajQ0bNrBZLH9vdlwA0aqkpIQ1ad2V68OHD436KRQK7Ny5k+OXlZVl0P7Ro0dwcXEBESE9PZ3z2bgCotFoUFJSggULFnC+nKenJ+7du2fUV6FQYNeuXcxn6dKlBrcOent7sXDhQhAR3NzcOJ+NKyBaqVQqREZGcnbYvby88OTJE6N+PT09mDNnDvOJi4szaFtcXMzsMjIy2N/HJRAAqK+vx6JFizgtxc/Pz+jjo9FocPnyZc6e7atXrwzab9y4EWlpaZx+ZNwC0Yp/FiMSiUac1erOb7y9vc3asBr3QKqrqzmzUiLCnj17MDAwYNCntLQUs2fPZvanT582ubxxD0Sj0eDZs2ccII6OjsNGB75yc3OZvYuLCyoqKkwqb9wD0SozM3PYHktOTo5B+8bGRs6aae/evSaVM2GA9PX14cKFC8NWyV++fDHo09zczGwnT5484v6JUqmcOEC0mj59OgfK9u3bjdofOnSI2R49etTg+qi6uhrx8fETD4hcLkdQUBAHSnl5uUH7uro6Nvv18fEZ8Xh2wgEBgBcvXsDZ2ZkB8ff3N7jH2tzczDkZOH78uNHYExJIe3s7oqOjOa0kLS3NoP2dO3c4tsaORCYkEGDoXRHdLzl16lSDEzClUondu3cz2+TkZINxJ8xLd3xNmzaNUlNTycHBgYiIfvz4QXl5edTd3T3MdurUqbRw4UKWl8lkhl/gs9Qd/BtSKpUICwtjd97Z2RmlpaV6bXt6ehASEsJak6E+Z8K2EKKhO3/kyBGW7+vro5cvXxL0/PJWKBSSt7c3EQ21ptevX+sParn79/ek+yrFzJkzDe7cX79+nR2crV+/Xq+NVQCRSqWcDvbcuXN67UpLS9lwbW9vr9fGKoB0dHQgKiqKA8XQOyW6J4j6zpgndB+ilVgspvj4eM7fioqK9Npu2bKFiIiCg4PJzk7P17f03ftb4m8RbN261eCeSX19vcE4VgMEAGJiYjjHmzU1NWbHsIpHRqvFixez687OTsrOzjY/iAVu1D9TV1cXZ7sxKirK7BhW1UKcnZ1p1apVLF9WVmZ2DKsCYm9vTxEREZzRIy8vz6wYVgWEiCg8PJwcHR1ZXiqVmuVvdUACAwPJ3t6e5auqqqilpcVkf6sD4ufnRytWrGD5np4eam9vN9nf6oAQEUVFRbFrlUplAxIXF8euu7q6/r8fGSKiuXPncvJNTU0m+1olEKKh0UaryspKk/2sFkhgYCC7bmtrM9nPaoHoypxfhFstkJCQEHbN/22fMVktkNHKaoG4uLiMys9qgfj7+3PycrncJD+hJSozHuTg4EBubm4sr+9ET58EgHX+P9WfP39ypuwBAQEm+VktkNHKavuQ0coGhCcbEJ5sQHj6H0Aofocpab6/AAAAAElFTkSuQmCC;imageBorder=none;" vertex="1" parent="1">
          <mxGeometry x="1350" y="3320" width="158.14" height="200" as="geometry" />
        </mxCell>
        <mxCell id="fSu5U68FAcuSb7UhGb1r-30" value="" style="shape=image;html=1;verticalAlign=top;verticalLabelPosition=bottom;labelBackgroundColor=#ffffff;imageAspect=0;aspect=fixed;image=https://cdn2.iconfinder.com/data/icons/maki/100/harbor-128.png;sketch=1;hachureGap=4;jiggle=2;curveFitting=1;fontFamily=Architects Daughter;fontSource=https%3A%2F%2Ffonts.googleapis.com%2Fcss%3Ffamily%3DArchitects%2BDaughter;fontSize=20;" vertex="1" parent="1">
          <mxGeometry x="1142" y="3585" width="197" height="197" as="geometry" />
        </mxCell>
        <mxCell id="fSu5U68FAcuSb7UhGb1r-54" style="edgeStyle=orthogonalEdgeStyle;rounded=0;sketch=1;hachureGap=4;jiggle=2;curveFitting=1;orthogonalLoop=1;jettySize=auto;html=1;entryX=0;entryY=0.5;entryDx=0;entryDy=0;fontFamily=Architects Daughter;fontSource=https%3A%2F%2Ffonts.googleapis.com%2Fcss%3Ffamily%3DArchitects%2BDaughter;fontSize=16;" edge="1" parent="1" source="fSu5U68FAcuSb7UhGb1r-32" target="fSu5U68FAcuSb7UhGb1r-26">
          <mxGeometry relative="1" as="geometry" />
        </mxCell>
        <mxCell id="fSu5U68FAcuSb7UhGb1r-32" value="" style="shape=image;verticalLabelPosition=bottom;labelBackgroundColor=default;verticalAlign=top;aspect=fixed;imageAspect=0;image=data:image/png,iVBORw0KGgoAAAANSUhEUgAAAEoAAABgCAYAAAC65+QhAAAACXBIWXMAABYlAAAWJQFJUiTwAAATDElEQVR4nO2ceXRb1Z3HP+9pteRFlmxZ3tc4dhwntrMnhpAmJECAkAbC0jJkMu3pKR0oLXOAzrSlLS2n7fTQDoW20ECAsrQsDQUaQglJaMDZ98WJ93hfYsmWtW9v/pAxcSxb8paEHn/+8bF077u/99Vdfvf3u+8JkiRJTBEW8XIb8EVhSqgImRIqQqaEipApoSJkSqgImRIqQqaEipApoSJkSqgImRIqQqaEipApoSJkSqgImRIqQqaEihD5WCs2mu2cbLcE/+kP/SXrNIgC5Bli0arGfOkrklHdTUCS6HV6eP1IAz94/zBmuztkuRSdhnvm5jEtMZZF2UYStCriopSIgjAhRl8OhNGEgo+3WvjJtiO8faIx4gbyEmJJidNwZ1k262Znoteqx2To5SZioSQJ1jy3na2nmsfWkCiwtjiDP96+hLgo5ZiucTmJeOhZXZ4xiWSK0xCjUnBdQSo/uq7kCykSjEoo76gvviw/mQStmvrzfeTqoyMWyeHx0W51opBN3qKcEK0mSiGLuHzEQgXGYMyiTCO//6QSjySRFBsVvg1JoqXHwS+2H+e1w3X0juHHGYm0WA23lGSSFK3hjrJssg3REded1DXcGwhgcXrQqhWYHZ6w5fc0dNJocZAYo+H+pTMn1BYBEAR491Qj57ptXJOfNDlCGTRKohQynF7/sGVUSjl6tRKrx0tarAZjdHCF2zh/GhIS5+0uEkZY9f73oxO8N8bFIhwquciDy4o53NSNQaMadf2IhYpWKcjUx3Cmoyfk96aYKGam6IlVy+mye1CK8OuPTwPw238G/55os/DLm+ehVYZuVhIEluUnMytFT6PZNtp7CYlaLuN0R8+wdkfKqIbeNxZP54G39yGEcCi+vriAVw7VUHe+L2RdrVzG91bMHlakz5iWGMvOmnaON3ePxrRhyU2MJT8x9tIKVZ5jZHGmkVarA7PdTZ/bS5xaQVGKnor69mFFArjvmiLSdJpxGXs5GZVQDo+Ph6+dRZY+mr31ndSZbahEkad2n8biHHmyTtCOfl64kggrVECSONlm4bk9VTz9yZmBz8tzTSzNSWLT3qqwIum1KuZkGMZv7WVkRKEsDjcvHajl/3ae5JzVwYVb2k9q26k/b2Vmio6bZqbzbMXZIfVvLs5geV4yiTFq5qQlTLTtl5SQQtndXt471cx///0Q5/pXn1D7/pZeBy29Dm4rzWbjgmm8drgOjy9AWpyG7f95/aj8lCudIXsEp9fPE7tOc+9bewZECscbR+o51dHL9TPS0GlV/GXjMrL+hUSCED3qSHM3T/3zNL0ReNIXsq+hk+kmHbvvv4H8xNgJM/BKYUiPev1oPd2O0AG5cJxt7+GOF3axq6aNf7UDj4OEajTb+f2nQyfl0XCszcx9b+2jdgSf6ovIoKF3tNWM3z+WOMHnCBJUtvewZtN2Pr7/+hH3dqGo6exjYWYCCzMnZpXURSk52mIe+D9Bq2J9aTam6NE5vwNCWV0e7n1zz4QYB3C2s5f3TjaxYcG0iOtIksSO6lb2NSkmzA4Al9ePXICZyfE8e0c5clHgdHvP2KIH7X0u2nsdE2rg1spm7piTg1oePkDm9vr55U3zWF2Yjtc3fIRirIiiwOJsI385XMfD7x7k12sXjKq+HMAfkHh5f+2EG1fVYaW6y0pxcnzYsiqFjNrzffQ43XQ7POyubR91ewVJcSE/b7O6sLk81FlsbN5XDYA/EGBPQyezU/RowmzUoV8oURDotDtHbVg4TrZbqGzvJUouw+bxDXyea4hGo1TgDwQIAH0uH28eree+t/YC8L0Vs1iRn0Kfx8vmvdW4Ipw31crQQ7b2vJVum4vpSXEoZSLXTjNxz/w8Nu08zWPbjvGT1aXMSTMgjJBOEyRJksx2F7c8t4OK+s7IVYiQ5FgNG+bn8fLBWpp67AAszDTyP6tm8/KBGuweLw3dNk509CBIwWTEw8uLabLYqO+2MTvVQGOPDd94Fxng6lwTfW4vt5VkkxSjxh+QeHN/DV97cw8fP7CasrTh96OCJEnSzupWVv/hQzyByXF+0vXRfLu8kP9658DAZ/ddPYNel4eX9tcMKqsUBaYnx/PoyhLiNQo0Sjnbz7ayq7adIpOeU+1mcgyx1HVbATjaZKYkXU9lh5XCpKGObkVd8MeXiyK/umU+S7KNA0PUH5Bottip7u4jQauk0BSPapiEhhzA6Q1MmkgATWYb75xq4rvLZnK4+TwqUWRuuoFMfTRalYLWXjtLc000mG3EKBUoZSJ/qDhLtiGacxYbTm+Aa3KT2FnTTqZeS6xagccPpanx5CXEoZKLlKUl0OvykBkfzfyMBH649QiCKGCM1SACt5Vm0WZ1YnMHExZur5+H3z3IU7srAbi9NJvHbigjJyEm5D0IkiRJbx07x+0v7Jw0oT5jXkYCz99VTlqclm1nWvj+1sM0W+ysLEjB6vIRq5bj8vkRBAG5KODwBohXK0jVaeh1erC5fawvyaal186jHxzF7vISpZLjdAfnv28sKSA1VkOdpQ9RENhW2YIgSdxbXkCWPobrZ6QSo1YSCEhUNHTwUdXnC4YpRk1hko6leaaQtssBqjp6J10kgIPN3WzeV8MPVs7GbHfx3aUzRn2NXpcHpzeAvT+V9ZlIAEuyjahkIgZtMH84J1VPaZqB6ca4QTlFbyCAQaNmzcx0AGan6mm2OMjQa4dtVw6QHBc+5zYRSAGJZz49Q6ZOy/qyrAhriUAw7dXQbef9ymY+qAydqVmcnYRWOXiOUcpkQxKvarmMGSbdoM9GEgn6hUrRjVxoIrF7fHx7yz4EAYqSdRhjoshPjOPCldkfkHD5/Oyu6eB4m5mtp1uoqO/giVvmc6TlPE0XhX/ilHIKk+NRygQSoyfnRxd8fr+0u66DNc/tGOjOlxKDWsH6OTmoZDLiNSrOO9x0Wh0ca7NwJsSUsL4kiyilHLVChkYRdBTXFGeQY4glZRJHhvDY+0elB5cXsfG1T3njSP2kNRSRMaKAFGb1lQTQyGX8/RvXUp6TBHBJzl3Jf/TBEdx+P9dOT2FXTTtdfRPvoUdKOJEAsnXRrC5K4+rc0KvTZCHIHtgsRclEMgwx3D03D1GUaDDb+ai6jdou6yU1ZiSW5Sdz3fRU1hRnkqnXTupJl1AIqT/4s9R+US8qNOm4vTQHh9fLKwdqsbq89Lkv7fwVpZCRoFVTnKzjibULSdAq0Y3hzMBEISz69XvS/nNdwxYoSTOwIDORF/ZV4x5n+EMmCKyemY5KLuLzB4fZluPnhpQrS0/guoJUmnps/HBV6RWRzRFePlAj3fPK7hELpeuj+WpZLj/fcTyieWTYxkSBu+bk8N6JRnpdXgpNOlbPSB9UpjRVz+Pbj3OqzcK2b67imtzghC0IwiAX4lIfnBXae53S/CfeoSVM0G5xdhKiKPDJGOJEF3L9jDSaehycbDWHLZubGMtVWUYA5DIRjUqO2P87FafqiVUpyDREo9eoMEarI4orjRVBkiTpbycaWff8jrCFby3NYk9dZ1hRR0ImE/nmkgKe6j8KNJ7ryAVQiyJyUeDfF0/n5zfNHdc1R0IEWJhlpGSEWMxn1J23ceec3HE16PcHeL+ymfuunoFKPvaVy+8P4PYF6PX46HZ5+dWOk7x6qA7vOONWwyEC6DVKritIDVv4WKsZj99PQZIubNmRqO2y0mDuIz8xdOh2rPxk21G8gUkUSiETube8IGxhvz/Akx+fZkFmQtgDYeE41mJhVpp+XNe4GOckujADfT9Bq2bNrIyIKp1otTBvnHm3RouN2abwSYfR4JUk7O6Jz+DABUIp5SLfWVqEIIZfdiu7eslPjEM2Du9YEAVOtIc/LhilkKNSypHJRKQwpvkJnueaDAaNnyU5SawtzuCvx4Y6gRfidPtosTp4+EvFPP7hsTE1nJ8QS58r9EGQTH00hUlxpMZp6LC7uLEwHbko8NKBWv45TvdkrAzqEgLB2HGUIvz8s/V0M1fnmcgco9es16ho7BnsZtxbXsATa+ezNDeJUx29/PloA38/1Ux2QjTrS7MpNI08+Qf8ATptk7OpH6LItdNTKU6JZ6RtDQR3+g++vZ+V01PZtLdq1B77guxE6rv7SI5Lx6BRkR4XzR/3naXTGrzR9JgoipJ03FmWTaFRh0YpRxUm4ywKQtgyY2WIUNEqOY+tLmXV7/4RtvLJdgtFyToSNSo6ba5RNZwao+Hd4430ub30OT04+/2f1YWpzM000my14/T4+NZVhZFvV0SBOPXkPJQ0ZDYWBYFZyYaIln9Bgsq2HlZE4INdSIxKgdnhpra7D39AosCkY8OCPH52YxnuAPx42xGeq6ii74KIq8PjG/emfDyEVCMxWsWGBdN4uj/nNRIn2iw8tKKYVw9GfnZhXUkWSrmM365bSHFKPKVpBrpsLvIee3NQuapOK15fAFX/U1AXx8ovJcN2m/9YOI03jjUMzBkThUwm8uiqEtLjByc0Qs2I7VYHzVYHuYZgUnK0xyUnkmEdoRkmHatnpE14g9fkJiETI/O/el1e7nx+Jx9UttDV5+LyDbwRhJKLIj9cWRLRRQ43dVNoCr//U8lFNizIxxgTeaTycKuZWzfv4Ftv7cF5pc1Rn6GLUtL849vZXtXK1pONtPQ6OdVmoeeiPZU3ICEL49Gn67RsWDCNm2emI7+oR9V29XHL8x8NW9fp9WP3+kJ+tyw/mdWFaVydZ6IgKW4ghTXRjHjVGLWCGLWCr87NZX1JNn0uD5/Ud+Hx+alo6Bx4vCwcKwtT+dGqEkpSDShDhFaae+1jTus/sqKY5dNSxlR3NEQsv1IejDA2tJr5+Y4TfGVRPm9t/BJ9bi89Tg/nuvuQI1CUrEOvVeP0+vj6onzSddEYY4YeeLW5vFjsblp67fxpfzU+JPT9qW+PJKFRyLmxKI0ouYxsfTQLs408/M6hIdd5+1gjVoeXlYWp445ojETEj/PXd1p5ZtcpXjxUy/zUePKNOp7cX8ONeSaWz8zg1tJs1AqR3TUd3PWnj7F7fFQ98mVyLjizFJAk6jut7Kxs5qMzLdR32zh4/vOU2NqidL5eXohcFIhVK5hh0g2Ed6u6rNz0zIfUdg89lm1QK1lbksXd83MxaNSk6TSIgoDb6yd+gp7qiugnCEgSy37zHs1OD99dkM8v71gMQJYhhkc/PMbfqtuoajrPQzeUIXn92PuPIQYkCbvbi8Xu4Xfbj3OyzcLWhuDBLp1ChlYmsjYviS01HQAkqxSU5xhDxr5fPVAbUiSAbpeHTXur2LS3ash368uyeXrdQuLHmeqKSCiby8tDy4vpdXiYnfF5HOreFbMoSjPw/O5KnjpYy4kWM3nGzzeuv99xgqPN3XzcFnyHi0wQWJuXRKY+ltWzM5hm0nOovoMtNR2U6aN58u6rh7XhjRMjRzSG46MzrZxss3DVODPLo3rlSLDo4LQRgMfn5/6Xd7PpWEPIeia1gnkp8Xx7xWwW5SUFEwP9K5/X5+dMWw9ZiTHEDLNP23K8kds2h09+hGLzXVdx88z0cb+YYlSz38WnZrusDs6293DkXBf7GoO+tVIUiJPL6OoffqWGGH6zfhFL8kOvTAq5jOL0kRMbzmFcg8SY4OmV/H7PXRAEtCoZkiSQZYjmK3NzWJKdFPkNjsCoetRnOL0+XttTxeaKszT2Omh3+/BLEvMTYvnOtbMoStXzSkUVv6gIPjF6XWYCj9xQRvkwYkXS3kv7a/npP47RZg3GsCQBXr9n2UD0AoLvNVDKZUgSaFXyCU2SRiSUx+en2WynyWzlud1nePV084CxM2M1pMVpuaE4nX9bUkDMBV388XcOseV4A0f6J+FHlhSwobyQHGMsYgQh54sx2z2cs3w+oReadBE9FTERjChUW48Ds83Fi5+c4f0zzVRekPgsjNOwcUE+q2ZlUJAcP+yNN3T18dAbn/LX6mAId1q0msdumsut8/Mm+FYmlyFC+QMBbC4vWw7V8bMPjlJ/wcu04uQy4pQybp+VxYM3lJIQE/kJt52nW7jjhR1097+JY15iLM/evZR8k24gjHIlM0SoT6ta+coLu2i+4MnzDI2Sm2eks6o4g/L85GFXp3BUVLex5VAdzx+qo7d/g7uxOJMff3kByVf4OxGGrHo2tw/3BWnpOwtT+f5N88g1xiIf5+GtxdOSWZCbRKYhhge2HgbgxZPn+KC6lbqf3RV2Y305GdKjKlssrHvmHyzOSuTxdYswTtIB0orqNp7ecYK/nGkF4KFF03l8/aJJaWsiGNSjXttTxVM7T1Jrc/HK8uJJEwmCvaswJZ6r9lXz5K5TVHddmocCxsqgsXT36xXs67LilyR2nG6Z1Ib9gQDnrS6ON5mp6nOxYhKiqRPJoB61sTiTHbXtlGcbWT/Jy3ebxcHXXtzFp/1v4VFPUsBtohhk3bMbl12yhrtsTtrtLiQBjAo5X108/ZK1PRbGtIWZCFweH28frqfb5mRhrok52cbLYUbEXDahvmhMvVQ5QqaEipApoSLk/wFfdhg2pAPq1AAAAABJRU5ErkJggg==;" vertex="1" parent="1">
          <mxGeometry x="-250" y="3350" width="192.71" height="250" as="geometry" />
        </mxCell>
        <mxCell id="fSu5U68FAcuSb7UhGb1r-36" value="" style="rounded=0;whiteSpace=wrap;html=1;sketch=1;hachureGap=4;jiggle=2;curveFitting=1;fontFamily=Architects Daughter;fontSource=https%3A%2F%2Ffonts.googleapis.com%2Fcss%3Ffamily%3DArchitects%2BDaughter;fontSize=20;" vertex="1" parent="1">
          <mxGeometry x="1209.07" y="3150" width="260" height="110" as="geometry" />
        </mxCell>
        <mxCell id="fSu5U68FAcuSb7UhGb1r-37" value="&lt;span style=&quot;font-size: 36px;&quot;&gt;MAVEN&lt;/span&gt;" style="text;html=1;strokeColor=none;fillColor=none;align=center;verticalAlign=middle;whiteSpace=wrap;rounded=0;fontSize=20;fontFamily=Architects Daughter;" vertex="1" parent="1">
          <mxGeometry x="1290" y="3190" width="110" height="31" as="geometry" />
        </mxCell>
        <mxCell id="fSu5U68FAcuSb7UhGb1r-64" style="edgeStyle=orthogonalEdgeStyle;rounded=0;sketch=1;hachureGap=4;jiggle=2;curveFitting=1;orthogonalLoop=1;jettySize=auto;html=1;fontFamily=Architects Daughter;fontSource=https%3A%2F%2Ffonts.googleapis.com%2Fcss%3Ffamily%3DArchitects%2BDaughter;fontSize=16;curved=1;" edge="1" parent="1" source="fSu5U68FAcuSb7UhGb1r-49" target="fSu5U68FAcuSb7UhGb1r-43">
          <mxGeometry relative="1" as="geometry" />
        </mxCell>
        <mxCell id="fSu5U68FAcuSb7UhGb1r-49" value="" style="image;html=1;image=img/lib/clip_art/computers/Server_Rack_128x128.png;sketch=1;hachureGap=4;jiggle=2;curveFitting=1;fontFamily=Architects Daughter;fontSource=https%3A%2F%2Ffonts.googleapis.com%2Fcss%3Ffamily%3DArchitects%2BDaughter;fontSize=20;" vertex="1" parent="1">
          <mxGeometry x="1633" y="3620" width="250" height="276.5" as="geometry" />
        </mxCell>
        <mxCell id="fSu5U68FAcuSb7UhGb1r-50" value="" style="group" vertex="1" connectable="0" parent="1">
          <mxGeometry x="2068" y="3330" width="784.69" height="530" as="geometry" />
        </mxCell>
        <mxCell id="fSu5U68FAcuSb7UhGb1r-43" value="" style="rounded=1;whiteSpace=wrap;html=1;fillColor=none;strokeColor=#3333FF;dashed=1;shadow=1;sketch=1;hachureGap=4;jiggle=2;curveFitting=1;fontFamily=Architects Daughter;fontSource=https%3A%2F%2Ffonts.googleapis.com%2Fcss%3Ffamily%3DArchitects%2BDaughter;fontSize=20;" vertex="1" parent="fSu5U68FAcuSb7UhGb1r-50">
          <mxGeometry y="69" width="725" height="461" as="geometry" />
        </mxCell>
        <mxCell id="fSu5U68FAcuSb7UhGb1r-31" value="" style="image;sketch=0;aspect=fixed;html=1;points=[];align=center;fontSize=12;image=img/lib/mscae/Docker.svg;hachureGap=4;jiggle=2;curveFitting=1;fontFamily=Architects Daughter;fontSource=https%3A%2F%2Ffonts.googleapis.com%2Fcss%3Ffamily%3DArchitects%2BDaughter;" vertex="1" parent="fSu5U68FAcuSb7UhGb1r-50">
          <mxGeometry x="62.5" y="135" width="182.93" height="150" as="geometry" />
        </mxCell>
        <mxCell id="fSu5U68FAcuSb7UhGb1r-33" value="" style="image;sketch=0;aspect=fixed;html=1;points=[];align=center;fontSize=12;image=img/lib/mscae/Kubernetes.svg;hachureGap=4;jiggle=2;curveFitting=1;fontFamily=Architects Daughter;fontSource=https%3A%2F%2Ffonts.googleapis.com%2Fcss%3Ffamily%3DArchitects%2BDaughter;" vertex="1" parent="fSu5U68FAcuSb7UhGb1r-50">
          <mxGeometry x="642.5" width="142.19" height="136.5" as="geometry" />
        </mxCell>
        <mxCell id="fSu5U68FAcuSb7UhGb1r-44" value="" style="image;sketch=0;aspect=fixed;html=1;points=[];align=center;fontSize=12;image=img/lib/mscae/Docker.svg;hachureGap=4;jiggle=2;curveFitting=1;fontFamily=Architects Daughter;fontSource=https%3A%2F%2Ffonts.googleapis.com%2Fcss%3Ffamily%3DArchitects%2BDaughter;" vertex="1" parent="fSu5U68FAcuSb7UhGb1r-50">
          <mxGeometry x="522.5" y="135" width="182.93" height="150" as="geometry" />
        </mxCell>
        <mxCell id="fSu5U68FAcuSb7UhGb1r-45" value="" style="image;sketch=0;aspect=fixed;html=1;points=[];align=center;fontSize=12;image=img/lib/mscae/Docker.svg;hachureGap=4;jiggle=2;curveFitting=1;fontFamily=Architects Daughter;fontSource=https%3A%2F%2Ffonts.googleapis.com%2Fcss%3Ffamily%3DArchitects%2BDaughter;" vertex="1" parent="fSu5U68FAcuSb7UhGb1r-50">
          <mxGeometry x="292.5" y="135" width="182.93" height="150" as="geometry" />
        </mxCell>
        <mxCell id="fSu5U68FAcuSb7UhGb1r-46" value="" style="image;sketch=0;aspect=fixed;html=1;points=[];align=center;fontSize=12;image=img/lib/mscae/Docker.svg;hachureGap=4;jiggle=2;curveFitting=1;fontFamily=Architects Daughter;fontSource=https%3A%2F%2Ffonts.googleapis.com%2Fcss%3Ffamily%3DArchitects%2BDaughter;" vertex="1" parent="fSu5U68FAcuSb7UhGb1r-50">
          <mxGeometry x="49.569999999999936" y="330" width="182.93" height="150" as="geometry" />
        </mxCell>
        <mxCell id="fSu5U68FAcuSb7UhGb1r-47" value="" style="image;sketch=0;aspect=fixed;html=1;points=[];align=center;fontSize=12;image=img/lib/mscae/Docker.svg;hachureGap=4;jiggle=2;curveFitting=1;fontFamily=Architects Daughter;fontSource=https%3A%2F%2Ffonts.googleapis.com%2Fcss%3Ffamily%3DArchitects%2BDaughter;" vertex="1" parent="fSu5U68FAcuSb7UhGb1r-50">
          <mxGeometry x="502.5" y="330" width="182.93" height="150" as="geometry" />
        </mxCell>
        <mxCell id="fSu5U68FAcuSb7UhGb1r-48" value="" style="image;sketch=0;aspect=fixed;html=1;points=[];align=center;fontSize=12;image=img/lib/mscae/Docker.svg;hachureGap=4;jiggle=2;curveFitting=1;fontFamily=Architects Daughter;fontSource=https%3A%2F%2Ffonts.googleapis.com%2Fcss%3Ffamily%3DArchitects%2BDaughter;" vertex="1" parent="fSu5U68FAcuSb7UhGb1r-50">
          <mxGeometry x="282.5" y="330" width="182.93" height="150" as="geometry" />
        </mxCell>
        <mxCell id="fSu5U68FAcuSb7UhGb1r-71" value="&lt;span style=&quot;font-size: 36px;&quot;&gt;k8s集群&lt;/span&gt;" style="text;html=1;strokeColor=none;fillColor=none;align=center;verticalAlign=middle;whiteSpace=wrap;rounded=0;fontSize=20;fontFamily=Architects Daughter;" vertex="1" parent="fSu5U68FAcuSb7UhGb1r-50">
          <mxGeometry x="62.5" y="90" width="177.5" height="30" as="geometry" />
        </mxCell>
        <mxCell id="fSu5U68FAcuSb7UhGb1r-65" value="&lt;font style=&quot;font-size: 36px;&quot;&gt;operations&lt;/font&gt;" style="text;html=1;strokeColor=none;fillColor=none;align=center;verticalAlign=middle;whiteSpace=wrap;rounded=0;fontSize=20;fontFamily=Architects Daughter;" vertex="1" parent="1">
          <mxGeometry x="-199" y="3660" width="60" height="30" as="geometry" />
        </mxCell>
        <mxCell id="fSu5U68FAcuSb7UhGb1r-67" value="&lt;span style=&quot;font-size: 36px;&quot;&gt;jenkins&lt;/span&gt;" style="text;html=1;strokeColor=none;fillColor=none;align=center;verticalAlign=middle;whiteSpace=wrap;rounded=0;fontSize=20;fontFamily=Architects Daughter;" vertex="1" parent="1">
          <mxGeometry x="757.4999999999999" y="3660" width="60" height="30" as="geometry" />
        </mxCell>
        <mxCell id="fSu5U68FAcuSb7UhGb1r-68" value="&lt;span style=&quot;font-size: 36px;&quot;&gt;harbor私有仓库服务器集群&lt;/span&gt;" style="text;html=1;strokeColor=none;fillColor=none;align=center;verticalAlign=middle;whiteSpace=wrap;rounded=0;fontSize=20;fontFamily=Architects Daughter;" vertex="1" parent="1">
          <mxGeometry x="1285" y="3690" width="260" height="30" as="geometry" />
        </mxCell>
        <mxCell id="fSu5U68FAcuSb7UhGb1r-69" value="&lt;span style=&quot;font-size: 36px;&quot;&gt;sonarque&lt;/span&gt;" style="text;html=1;strokeColor=none;fillColor=none;align=center;verticalAlign=middle;whiteSpace=wrap;rounded=0;fontSize=20;fontFamily=Architects Daughter;" vertex="1" parent="1">
          <mxGeometry x="1580" y="3380" width="60" height="30" as="geometry" />
        </mxCell>
        <mxCell id="fSu5U68FAcuSb7UhGb1r-70" value="&lt;span style=&quot;font-size: 36px;&quot;&gt;maven&lt;/span&gt;" style="text;html=1;strokeColor=none;fillColor=none;align=center;verticalAlign=middle;whiteSpace=wrap;rounded=0;fontSize=20;fontFamily=Architects Daughter;" vertex="1" parent="1">
          <mxGeometry x="1530" y="3170" width="60" height="30" as="geometry" />
        </mxCell>
        <mxCell id="fSu5U68FAcuSb7UhGb1r-72" value="&lt;font style=&quot;font-size: 36px;&quot;&gt;应用服务器集群&lt;/font&gt;" style="text;html=1;strokeColor=none;fillColor=none;align=center;verticalAlign=middle;whiteSpace=wrap;rounded=0;fontSize=20;fontFamily=Architects Daughter;" vertex="1" parent="1">
          <mxGeometry x="1629.25" y="3550" width="257.5" height="20" as="geometry" />
        </mxCell>
        <mxCell id="fSu5U68FAcuSb7UhGb1r-73" value="&lt;font style=&quot;font-size: 36px;&quot;&gt;push&lt;/font&gt;" style="text;html=1;strokeColor=none;fillColor=none;align=center;verticalAlign=middle;whiteSpace=wrap;rounded=0;fontSize=20;fontFamily=Architects Daughter;" vertex="1" parent="1">
          <mxGeometry x="25" y="3420" width="60" height="30" as="geometry" />
        </mxCell>
        <mxCell id="fSu5U68FAcuSb7UhGb1r-75" value="&lt;font style=&quot;font-size: 36px;&quot;&gt;pull根据tag拉取代码&lt;/font&gt;" style="text;html=1;strokeColor=none;fillColor=none;align=center;verticalAlign=middle;whiteSpace=wrap;rounded=0;fontSize=20;fontFamily=Architects Daughter;" vertex="1" parent="1">
          <mxGeometry x="350.83" y="3420" width="400" height="30" as="geometry" />
        </mxCell>
        <mxCell id="fSu5U68FAcuSb7UhGb1r-80" value="&lt;font style=&quot;font-size: 36px;&quot;&gt;g i t la b&lt;/font&gt;" style="text;html=1;strokeColor=none;fillColor=none;align=center;verticalAlign=middle;whiteSpace=wrap;rounded=0;fontSize=20;fontFamily=Architects Daughter;" vertex="1" parent="1">
          <mxGeometry x="180" y="3640" width="170" height="30" as="geometry" />
        </mxCell>
        <mxCell id="fSu5U68FAcuSb7UhGb1r-81" value="&lt;font style=&quot;font-size: 36px;&quot;&gt;build&lt;/font&gt;" style="text;html=1;strokeColor=none;fillColor=none;align=center;verticalAlign=middle;whiteSpace=wrap;rounded=0;fontSize=20;fontFamily=Architects Daughter;" vertex="1" parent="1">
          <mxGeometry x="980" y="3221" width="60" height="30" as="geometry" />
        </mxCell>
        <mxCell id="fSu5U68FAcuSb7UhGb1r-83" value="&lt;font style=&quot;font-size: 36px;&quot;&gt;代码质量检测&lt;/font&gt;" style="text;html=1;strokeColor=none;fillColor=none;align=center;verticalAlign=middle;whiteSpace=wrap;rounded=0;fontSize=20;fontFamily=Architects Daughter;" vertex="1" parent="1">
          <mxGeometry x="1070" y="3380" width="237" height="30" as="geometry" />
        </mxCell>
        <mxCell id="fSu5U68FAcuSb7UhGb1r-85" value="&lt;font style=&quot;font-size: 36px;&quot;&gt;制作自定义镜像&lt;/font&gt;" style="text;html=1;strokeColor=none;fillColor=none;align=center;verticalAlign=middle;whiteSpace=wrap;rounded=0;fontSize=20;fontFamily=Architects Daughter;" vertex="1" parent="1">
          <mxGeometry x="1030" y="3550" width="200" height="30" as="geometry" />
        </mxCell>
        <mxCell id="fSu5U68FAcuSb7UhGb1r-86" value="&lt;font style=&quot;font-size: 36px;&quot;&gt;通知应用服务拉取镜像进行部署&lt;/font&gt;" style="text;html=1;strokeColor=none;fillColor=none;align=center;verticalAlign=middle;whiteSpace=wrap;rounded=0;fontSize=20;fontFamily=Architects Daughter;" vertex="1" parent="1">
          <mxGeometry x="1025" y="3820" width="520" height="30" as="geometry" />
        </mxCell>
        <mxCell id="fSu5U68FAcuSb7UhGb1r-91" value="" style="shape=flexArrow;endArrow=classic;startArrow=classic;html=1;rounded=0;sketch=1;hachureGap=4;jiggle=2;curveFitting=1;fontFamily=Architects Daughter;fontSource=https%3A%2F%2Ffonts.googleapis.com%2Fcss%3Ffamily%3DArchitects%2BDaughter;fontSize=16;entryX=-0.001;entryY=0.122;entryDx=0;entryDy=0;entryPerimeter=0;" edge="1" parent="1">
          <mxGeometry width="100" height="100" relative="1" as="geometry">
            <mxPoint x="-29" y="1310" as="sourcePoint" />
            <mxPoint x="230" y="1312" as="targetPoint" />
          </mxGeometry>
        </mxCell>
      </root>
    </mxGraphModel>
  </diagram>
</mxfile>
